<?xml version="1.0" encoding="UTF-8"?>
<svg width="305px" height="168px" viewBox="0 0 305 168" version="1.1" xmlns="http://www.w3.org/2000/svg" xmlns:xlink="http://www.w3.org/1999/xlink">
    <!-- Generator: Sketch 63.1 (92452) - https://sketch.com -->
    <title>ic_bubble_bg@3x</title>
    <desc>Created with Sketch.</desc>
    <g id="assets" stroke="none" stroke-width="1" fill="none" fill-rule="evenodd">
        <path d="M152.5,1 C133.728193,1 117.036812,7.17264056 106.509156,16.7735643 C106.378717,16.8925211 106.248715,17.0124684 106.119156,17.1333991 C105.944863,17.0906304 105.772535,17.0483226 105.600288,17.0066724 C99.621267,15.5609161 93.1934852,14.7754124 86.5,14.7754124 C70.9873392,14.7754124 56.8992763,18.9922298 46.5296551,25.8735507 C36.2704927,32.6815707 29.6450712,42.1034025 29.0460855,52.6214397 C29.0334361,52.8435614 29.0235124,53.0655024 29.0162937,53.2872461 C28.8042749,53.3607031 28.5909431,53.4341 28.3773846,53.5086757 C19.9866347,56.4387652 13.0026284,60.5750044 8.17410287,65.5176072 C3.62688859,70.1722525 1,75.540576 1,81.2749329 C1,89.2738414 6.09587005,96.5456111 14.392561,102.173768 C23.0290079,108.032403 35.1446984,112.112717 48.8852658,113.3788 C49.0831891,113.397037 49.2808875,113.414639 49.4783552,113.431606 C49.5531861,113.612528 49.6297552,113.792538 49.708492,113.971082 C55.0612891,126.109115 72.1719838,135.417125 93.490306,137.923449 C93.7531418,137.95435 94.0155952,137.984097 94.2776508,138.012693 C94.3037311,138.27474 94.3320037,138.53291 94.3651625,138.787412 C95.326708,146.167506 101.050352,155.476908 111.39756,166.762553 L111.25363,165.999251 C109.106856,154.50541 108.369558,145.627855 109.016001,139.364827 C109.045001,139.083862 109.077801,138.798316 109.114405,138.508187 C109.395492,138.495484 109.678174,138.482721 109.961322,138.468718 C116.205078,138.159939 122.163278,137.273809 128.383994,135.989096 C137.995866,141.083419 149.992177,144.10101 163,144.10101 C180.838621,144.10101 196.780465,138.428515 208.080264,129.277143 C212.059136,129.962334 216.21892,130.325598 220.5,130.325598 C231.778477,130.325598 242.215669,127.805217 250.716387,123.517808 C259.354305,119.161202 265.993878,112.982511 270.083474,105.224694 C280.141889,102.684037 288.753849,98.0259325 294.794739,92.0041267 C300.579446,86.2376935 304,79.2188268 304,71.6321442 C304,63.6869383 300.249009,56.3655093 293.960152,50.4521355 C287.412551,44.2954665 278.120382,39.6621083 267.35948,37.4103803 C267.171637,37.371074 266.983913,37.332612 266.796316,37.2949928 C266.738698,37.1145948 266.679256,36.9342768 266.617945,36.7547236 C263.903033,28.8039136 257.37177,21.9080099 248.492614,17.0103947 C239.690114,12.155062 228.577247,9.26524741 216.5,9.26524741 C208.512896,9.26524741 200.947971,10.5295164 194.193219,12.7904363 C194.035317,12.8432886 193.877389,12.8968423 193.719441,12.9510972 C193.582407,12.8558993 193.444952,12.7599485 193.307292,12.6648165 C182.865552,5.44887389 168.434119,1 152.5,1 Z" id="Path" stroke="#ECECEC" stroke-width="2" fill="#F7F7F7"></path>
    </g>
</svg>