<?xml version="1.0" encoding="UTF-8"?>
<svg width="24px" height="24px" viewBox="0 0 24 24" version="1.1" xmlns="http://www.w3.org/2000/svg" xmlns:xlink="http://www.w3.org/1999/xlink">
    <!-- Generator: Sketch 63.1 (92452) - https://sketch.com -->
    <title>ic_detail_6@3x</title>
    <desc>Created with Sketch.</desc>
    <g id="assets" stroke="none" stroke-width="1" fill="none" fill-rule="evenodd">
        <g id="Calculator-svg" transform="translate(4.000000, 2.000000)" fill="#1D9E89" fill-rule="nonzero">
            <path d="M0.905907495,19.9452604 C0.503865096,19.7959396 0.240742184,19.5661418 0.0888830835,19.2317143 C0.010985439,19.0601657 0.0084012848,18.7665957 0.00749036403,9.98555118 L0.00654817987,0.916562441 L0.0953567452,0.72763015 C0.215718201,0.471572334 0.447579872,0.242361884 0.709706638,0.120304582 L0.927319058,0.0189750321 L7.35130193,0.0185895931 L13.7752848,0.0182041542 L14.0340857,0.140639015 C14.3061122,0.269330664 14.4665679,0.427083255 14.6231563,0.719786724 L14.717469,0.896082655 L14.717469,9.99672463 L14.717469,19.097367 L14.5909615,19.325749 C14.4527739,19.5752163 14.3081345,19.71466 14.0372321,19.8595854 L13.8609379,19.9538981 L7.41554176,19.9615088 C3.87057388,19.9656929 0.941237687,19.9583824 0.905905782,19.9452604 L0.905907495,19.9452604 Z M3.59975332,18.4346938 C3.94586938,18.3414942 4.31430407,17.9632831 4.4184561,17.5942664 C4.44782827,17.4902 4.46210578,17.2113469 4.45354047,16.9090415 C4.43664668,16.3127683 4.35383084,16.0943045 4.03995246,15.818018 C3.7520197,15.5645692 3.53029165,15.510146 2.86308878,15.5291567 C2.22839006,15.5472411 2.07259195,15.5994908 1.77953833,15.8925439 C1.49969208,16.1723906 1.4412394,16.3635452 1.4412394,16.998866 C1.4412394,17.498331 1.4517015,17.5768604 1.54292591,17.762149 C1.73278116,18.1477683 2.10090047,18.4186946 2.51100017,18.4746274 C2.79789148,18.5137555 3.38628651,18.4921743 3.59975332,18.4346938 Z M8.0732621,18.4036325 C8.33757002,18.3056244 8.57457259,18.1032792 8.72839486,17.8443011 C8.84565653,17.6468775 8.84900771,17.6240964 8.84964041,17.0202792 C8.85019015,16.4423233 8.8428424,16.3848223 8.74357045,16.190439 C8.60683469,15.9226968 8.32313576,15.6736732 8.05240428,15.5837503 C7.88521028,15.5282176 7.7182561,15.5165049 7.27422355,15.5291567 C6.63952505,15.5472411 6.48372677,15.5994908 6.19067323,15.8925439 C5.91082698,16.1723906 5.8523743,16.3635452 5.8523743,16.998866 C5.8523743,17.4760612 5.8653636,17.5836946 5.94328308,17.7521589 C6.10817173,18.1086527 6.47044797,18.3911507 6.87351991,18.4775443 C7.14313405,18.5353332 7.83264968,18.4928544 8.0732621,18.4036325 L8.0732621,18.4036325 Z M12.4745268,18.4060223 C12.7444672,18.3089533 12.9810355,18.1093156 13.1393537,17.8449829 C13.2585122,17.6460325 13.2613679,17.6267293 13.2613679,17.0202792 C13.2613679,16.442979 13.2538642,16.3846017 13.1547054,16.190439 C13.0179696,15.9226968 12.7342707,15.6736732 12.4635392,15.5837503 C12.2963452,15.5282176 12.129391,15.5165049 11.6853585,15.5291567 C11.1938351,15.5431615 11.0951383,15.558376 10.9292758,15.6457084 C10.6825268,15.7756308 10.4956124,15.9705713 10.3667345,16.2324039 C10.2737002,16.4214167 10.2635092,16.4970852 10.2635092,16.998866 C10.2635092,17.498331 10.2739713,17.5768604 10.3651957,17.762149 C10.5450771,18.1275105 10.9008099,18.4020308 11.2846548,18.4716998 C11.5883829,18.526827 12.2383495,18.4909516 12.4745268,18.4060231 L12.4745268,18.4060223 Z M3.73424839,14.4161101 C3.99809079,14.2873101 4.23905696,14.0448505 4.35960985,13.7868737 C4.4477212,13.5983203 4.45967452,13.5087919 4.45967452,13.037409 C4.45967452,12.5658248 4.44774775,12.4765782 4.35951563,12.2879443 C4.24627623,12.0458454 3.94680899,11.7497495 3.70323084,11.6390475 C3.57383212,11.5802381 3.4147152,11.5643306 2.94016878,11.562761 C2.39875833,11.5609709 2.32305645,11.5701084 2.15977495,11.6569585 C1.8767015,11.8075268 1.69041456,11.994669 1.56072934,12.2587546 C1.44931049,12.4856424 1.4412394,12.5382381 1.4412394,13.0374099 C1.4412394,13.4914394 1.4549349,13.6023409 1.53141756,13.7676373 C1.69633533,14.1240625 1.98126518,14.3747366 2.36201032,14.4983713 C2.42089683,14.5174925 2.70997606,14.5281709 3.00440861,14.5221006 C3.4557803,14.5127949 3.57024668,14.4961717 3.73424839,14.4161109 L3.73424839,14.4161101 Z M8.15098116,14.4134805 C8.42009465,14.2822437 8.64677987,14.0538625 8.76948009,13.790355 C8.85902484,13.5980514 8.87080942,13.5104827 8.87080942,13.0374107 C8.87080942,12.5658266 8.85888266,12.4765799 8.77065054,12.287946 C8.65802784,12.0471662 8.34661285,11.7388321 8.10888865,11.6327315 C7.98687024,11.5782724 7.81429507,11.5620445 7.35130364,11.5614651 C6.81129379,11.5608514 6.73376874,11.5703349 6.57090964,11.6569602 C6.30187495,11.8000604 6.11961456,11.97683 5.97855846,12.2314642 C5.8563439,12.4520861 5.8523743,12.4774411 5.8523743,13.0374107 C5.8523743,13.5098934 5.8665743,13.6440998 5.93006253,13.771663 C6.1011666,14.1154518 6.40775974,14.3797246 6.77314518,14.4983722 C6.83203169,14.5174934 7.12111092,14.5281717 7.41554347,14.5221015 C7.8714651,14.5127019 7.98055889,14.4965893 8.15098116,14.4134805 L8.15098116,14.4134805 Z M12.5621161,14.4133092 C12.8359088,14.2800077 13.0602835,14.0510308 13.1858291,13.776803 C13.2841131,13.5621229 13.2900128,13.5094981 13.2749726,12.9816604 C13.2568694,12.3463113 13.2097696,12.2060103 12.9165216,11.9139088 C12.6132668,11.6118394 12.443206,11.5597812 11.7624385,11.5606174 C11.2247876,11.5612955 11.1441923,11.5712745 10.9820445,11.6572501 C10.7091349,11.801955 10.5060857,11.9990942 10.380534,12.2412518 C10.2827846,12.4297867 10.2651803,12.5240887 10.2502411,12.9392013 C10.2367537,13.3139726 10.2494017,13.4714039 10.307943,13.6575276 C10.4319139,14.0516634 10.7941666,14.3908989 11.2056934,14.4982373 C11.2763572,14.5166681 11.5654364,14.5270201 11.8480916,14.5212415 C12.2818792,14.5123726 12.3932111,14.4955435 12.5621161,14.4133092 L12.5621161,14.4133092 Z M3.70405567,10.4708133 C3.97656403,10.3540026 4.21079872,10.126657 4.34860385,9.84522227 C4.46259229,9.61242784 4.4664818,9.58243597 4.45304968,9.03990236 C4.44070493,8.54128308 4.42692934,8.45255974 4.33344111,8.26953961 C4.2126985,8.03316488 3.98754004,7.81385482 3.74759143,7.69890664 C3.60980257,7.63289807 3.47654647,7.61985096 2.94016878,7.61985096 C2.21731032,7.61985096 2.11154647,7.65162912 1.7887379,7.96581199 C1.50009507,8.24674176 1.4412394,8.4347666 1.4412394,9.07595375 C1.4412394,9.55314904 1.45422869,9.66078244 1.53214861,9.82924668 C1.6511242,10.0864754 1.89334291,10.3244355 2.16491516,10.4508887 C2.35992086,10.5416895 2.44407675,10.5526779 2.94732488,10.5530572 C3.40989893,10.553394 3.5458758,10.5386171 3.70405567,10.4708133 L3.70405567,10.4708133 Z M8.11233233,10.4720381 C8.36141071,10.3652707 8.59025867,10.160579 8.73409679,9.91590407 C8.84647238,9.72474818 8.85022869,9.69755075 8.85010674,9.07595332 C8.84997559,8.45408308 8.84627109,8.42736445 8.73408908,8.23982612 C8.58826253,7.99604368 8.43197302,7.84771306 8.18642141,7.72004754 C8.01699015,7.63195846 7.92256831,7.61816617 7.40504197,7.60591049 C6.85614261,7.59291221 6.80098929,7.59901756 6.58848608,7.6963045 C6.31749722,7.82036745 6.08422955,8.04861413 5.95001028,8.32103769 C5.86354946,8.49652591 5.8523743,8.58293233 5.8523743,9.07595332 C5.8523743,9.55314861 5.8653636,9.66078201 5.94328308,9.82924625 C6.06225867,10.0864749 6.30447794,10.3244351 6.57605011,10.4508882 C6.77105567,10.5416891 6.85521156,10.5526775 7.35845953,10.5530567 C7.81811049,10.5533936 7.9574818,10.538415 8.11233233,10.4720381 L8.11233233,10.4720381 Z M12.6403829,10.4181041 C12.8809769,10.2758445 13.0323473,10.116024 13.1611709,9.86824497 C13.2522677,9.69302912 13.2613679,9.62106938 13.2613679,9.07595375 C13.2613679,8.52722912 13.2526377,8.45930193 13.158427,8.27497816 C13.0335289,8.03061499 12.8544009,7.85335246 12.5975563,7.71994861 C12.4206227,7.62805011 12.3522167,7.61985096 11.7624385,7.61985096 C11.1869983,7.61985096 11.1021846,7.62943983 10.948734,7.71184497 C10.7072218,7.84154004 10.4839897,8.07138587 10.3651957,8.31267066 C10.2739713,8.49795931 10.2635092,8.57648865 10.2635092,9.07595375 C10.2635092,9.57960257 10.2734985,9.65312077 10.3682522,9.84683169 C10.5009653,10.1181452 10.7066141,10.3196929 10.9862236,10.4524792 C11.1922056,10.5502998 11.243857,10.5559478 11.8266784,10.5443807 C12.410964,10.532785 12.4590527,10.5253221 12.6403829,10.4181041 L12.6403829,10.4181041 Z M12.503615,6.63757045 C12.855358,6.5439409 13.1293961,6.31343854 13.2960497,5.97102869 C13.3876647,5.782794 13.3898475,5.73944154 13.3898475,4.10807366 C13.3898475,2.45600985 13.3887854,2.43568257 13.2922116,2.23966797 C13.1638711,1.97917687 12.951866,1.765634 12.6970278,1.64016741 L12.4904899,1.53848094 L7.35130364,1.53848094 L2.21211739,1.53848094 L2.03129529,1.6351036 C1.74769807,1.78664433 1.56179786,1.97353533 1.43224968,2.23734163 L1.31275974,2.4806651 L1.29921028,3.95818116 C1.28968394,4.99695846 1.30103897,5.50919615 1.33745096,5.68321627 C1.43050749,6.12795803 1.70254518,6.44577131 2.1347069,6.61462741 C2.33186176,6.69166081 2.55136891,6.69513704 7.30847709,6.69656874 C11.4553169,6.69781499 12.3139161,6.68806595 12.503615,6.63757045 L12.503615,6.63757045 Z" id="path3974"></path>
        </g>
    </g>
</svg>