<?xml version="1.0" encoding="UTF-8"?>
<svg width="38px" height="38px" viewBox="0 0 38 38" version="1.1" xmlns="http://www.w3.org/2000/svg" xmlns:xlink="http://www.w3.org/1999/xlink">
    <!-- Generator: Sketch 63.1 (92452) - https://sketch.com -->
    <title>ic_card_1_active@3x</title>
    <desc>Created with Sketch.</desc>
    <g id="assets" stroke="none" stroke-width="1" fill="none" fill-rule="evenodd">
        <g id="Group-10" transform="translate(1.000000, 1.000000)">
            <circle id="Oval" stroke="#58DCC2" fill="#FFFFFF" cx="18" cy="18" r="18"></circle>
            <path d="M12.9337314,25.5147237 C10.4372173,25.26558 8.26385836,24.674448 7.05946682,23.9169839 C6.65450068,23.6622924 6.23439584,23.2679697 6.10751659,23.0234543 C6.01125659,22.8379463 5.963559,22.3900646 6.03281286,22.3219779 C6.0491395,22.3059262 6.22788304,22.3996237 6.43002129,22.5301957 C7.73566011,23.3735755 10.0023487,24.0192548 12.6597942,24.3047806 C13.0816567,24.3501073 14.1056686,24.4007679 14.9353748,24.4173588 C16.5610931,24.4498676 18.0651168,24.3636567 19.316461,24.1662346 C19.7372572,24.0998459 20.392327,24.0563876 21.2888067,24.0353859 C22.0270667,24.0180902 22.7420417,23.9928138 22.8776404,23.9792159 C23.0132391,23.9656188 23.2782732,23.9392422 23.4666052,23.9206014 C23.6549364,23.9019605 23.8090259,23.9021904 23.8090259,23.921103 C23.8090259,23.994373 22.5438712,24.5478998 21.918861,24.7480825 C20.90414,25.0730846 19.6002206,25.336189 18.248107,25.4887651 C17.0407834,25.6250029 14.1788851,25.638977 12.9337314,25.5147137 L12.9337314,25.5147237 Z M12.9063375,23.1641923 C9.98285963,22.8831961 7.43649825,22.0675029 6.44754437,21.0952056 C5.87939177,20.5366208 5.85399619,20.0353063 6.36564501,19.4785089 C6.85306238,18.9480831 8.03485003,18.351547 9.29728447,17.9986929 C9.54094851,17.9305886 9.63467873,17.9255959 9.74465821,17.974862 L9.88378754,18.037186 L9.90210654,19.1752343 L9.92042554,20.3132827 L10.1169617,20.7172682 C10.2257924,20.9409708 10.4429001,21.260246 10.6034684,21.432717 C11.1376241,22.0064664 12.3180096,22.6740939 13.4816049,23.0605938 C13.7226694,23.1406658 13.9301768,23.2157934 13.9427321,23.2275438 C13.9759866,23.2586648 13.7376474,23.2440962 12.9063375,23.1641923 L12.9063375,23.1641923 Z M19.0973116,22.8692128 C15.395218,22.7094819 11.8712557,21.5740336 11.2327294,20.3351832 C11.110135,20.0973309 11.0527392,19.7027758 11.1297227,19.6270897 C11.1469754,19.6101276 11.3620695,19.7188007 11.6077089,19.8685854 C12.364867,20.3302808 13.5259011,20.7740744 14.7965023,21.0874682 C15.2727861,21.2049438 16.55444,21.4456428 16.9778374,21.4971294 C18.2060761,21.6464893 18.876612,21.6817662 20.5347277,21.6842551 C22.2605393,21.6868467 22.4916319,21.6746767 24.110357,21.4959556 C24.4560132,21.4577927 25.9604416,21.1746455 26.4048144,21.0641172 C27.5367055,20.7825851 28.8991304,20.2396582 29.6156564,19.7845967 C29.9405897,19.5782333 29.9986097,19.593071 29.9979637,19.8823656 C29.9966913,20.4467055 29.1866238,21.1730294 28.0002605,21.6735556 C26.436051,22.333495 24.2270533,22.762924 21.8366802,22.8717551 C20.6143821,22.9274051 20.4423503,22.9272454 19.0973116,22.8692136 L19.0973116,22.8692128 Z M18.7685875,20.5205416 C16.1007525,20.2738207 14.1256143,19.8313129 12.7836683,19.1796887 C12.490202,19.0371866 12.259294,18.9115489 12.2705399,18.9004924 C12.2817857,18.889436 12.4849129,18.92899 12.7219332,18.9883904 C13.2785934,19.1278961 14.6500583,19.340279 15.5909192,19.4326764 C16.0493593,19.4776988 17.028314,19.5053127 18.1659261,19.5053127 C19.8307162,19.5053127 20.1967356,19.4872387 21.53535,19.3389313 C22.3440433,19.2493345 23.7139878,18.9761109 24.5212619,18.7434185 C26.574972,18.1514463 27.9860861,17.2936659 28.5029824,16.3230348 L28.6497759,16.0473849 L28.9231187,16.2142738 C29.5649002,16.6061101 30,17.1471309 30,17.5533109 C30,17.81839 29.6940082,18.2764796 29.3151578,18.5785637 C28.8885504,18.9187278 27.8508743,19.414798 26.9866942,19.6917077 C26.2972015,19.9126422 24.4702318,20.3015282 23.8090259,20.3681017 C23.6131615,20.3878218 23.268001,20.4275397 23.0420029,20.456365 C22.6199916,20.5101882 19.2103294,20.5613939 18.7685875,20.5205416 L18.7685875,20.5205416 Z M16.9606035,18.3701737 C16.8250048,18.3590955 16.3812272,18.3242768 15.9744311,18.2927988 C15.5676341,18.2613199 14.9636037,18.1991389 14.6321398,18.1546181 C11.2643826,17.7022779 8.68770898,16.4890266 8.68770898,15.3556273 C8.68770898,15.2333454 8.70235533,15.118897 8.72025681,15.1012978 C8.73815829,15.0836987 8.88427066,15.1519801 9.04495286,15.2530363 C10.5656586,16.2094366 13.0353375,16.8707955 16.0018241,17.1160274 C17.1535758,17.2112397 19.4055484,17.197044 20.5765706,17.0871879 C23.4542948,16.8172264 25.7155547,16.1931466 27.205012,15.2578217 C27.5301519,15.0536461 27.5879643,15.0687547 27.5873184,15.3577333 C27.5867177,15.6355869 27.4001502,15.9406564 27.0232871,16.2801676 C25.9458046,17.2508564 23.59705,17.979252 20.6039645,18.2709275 C19.8132662,18.3479814 17.4702217,18.411806 16.9606035,18.3701737 L16.9606035,18.3701737 Z M15.9721896,15.9487441 C12.3717463,15.6633964 9.26987613,14.54953 8.76456663,13.3605217 C8.47202131,12.6721542 9.09896767,11.9347547 10.5247995,11.2901764 C12.3629537,10.459199 15.0788188,9.99898592 18.1385322,10.0000017 C21.2390155,10.0010317 23.8878623,10.4555381 25.808489,11.3160547 C26.6895544,11.7108071 27.4070983,12.3057656 27.5440261,12.7550929 C27.6328958,13.0467191 27.5349461,13.3951858 27.2771655,13.7044748 C26.5450407,14.582889 24.3465388,15.4177857 21.7818933,15.7913424 C20.2186592,16.0190378 17.7150124,16.0868695 15.9721896,15.9487441 Z" id="path845" fill="#009080" fill-rule="nonzero"></path>
        </g>
    </g>
</svg>