<?xml version="1.0" encoding="UTF-8"?>
<svg width="32px" height="32px" viewBox="0 0 32 32" version="1.1" xmlns="http://www.w3.org/2000/svg" xmlns:xlink="http://www.w3.org/1999/xlink">
    <!-- Generator: Sketch 63.1 (92452) - https://sketch.com -->
    <title>ic_card_1@3x</title>
    <desc>Created with Sketch.</desc>
    <g id="assets" stroke="none" stroke-width="1" fill="none" fill-rule="evenodd">
        <g id="Group-11">
            <g id="Group-10">
                <circle id="Oval-Copy" fill="#FFFFFF" cx="16" cy="16" r="16"></circle>
                <path d="M12.2002985,21.9344029 C10.3279129,21.7427539 8.69789377,21.2880369 7.79460011,20.7053722 C7.49087551,20.5094557 7.17579688,20.2061306 7.08063744,20.0180418 C7.00844245,19.8753433 6.97266925,19.5308189 7.02460965,19.4784445 C7.03685462,19.4660971 7.17091228,19.5381721 7.32251597,19.638612 C8.30174508,20.2873658 10.0017615,20.7840421 11.9948456,21.0036774 C12.3112425,21.0385441 13.0792514,21.0775137 13.7015311,21.090276 C14.9208199,21.1152828 16.0488376,21.0489667 16.9873458,20.8971035 C17.3029429,20.8460353 17.7942453,20.8126059 18.466605,20.7964507 C19.0203,20.7831463 19.5565313,20.7637029 19.6582303,20.753243 C19.7599293,20.7427837 19.9587049,20.722494 20.0999539,20.7081549 C20.2412023,20.6938158 20.3567694,20.6939927 20.3567694,20.7085408 C20.3567694,20.7649023 19.4079034,21.1906922 18.9391458,21.3446789 C18.178105,21.5946804 17.2001654,21.7970685 16.1860802,21.9144347 C15.2805876,22.019233 13.1341638,22.0299823 12.2002985,21.9343951 L12.2002985,21.9344029 Z M12.1797531,20.1263018 C9.98714472,19.9101509 8.07737369,19.2826945 7.33565828,18.5347735 C6.90954383,18.1050929 6.89049714,17.7194663 7.27423376,17.2911607 C7.63979679,16.8831409 8.52613752,16.424267 9.47296336,16.1528407 C9.65571139,16.1004528 9.72600905,16.0966122 9.80849366,16.1345092 L9.91284065,16.1824507 L9.9265799,17.0578726 L9.94031915,17.9332944 L10.0877213,18.2440524 C10.1693443,18.4161314 10.3321751,18.6617277 10.4526013,18.7943977 C10.8532181,19.2357434 11.7385072,19.749303 12.6112037,20.0466106 C12.7920021,20.1082044 12.9476326,20.1659949 12.9570491,20.1750337 C12.98199,20.1989729 12.8032356,20.1877663 12.1797531,20.1263018 L12.1797531,20.1263018 Z M16.8229837,19.8993945 C14.0464135,19.7765246 11.4034418,18.9031028 10.924547,17.9501409 C10.8326013,17.7671776 10.7895544,17.4636737 10.847292,17.4054536 C10.8602315,17.3924058 11.0215521,17.4760006 11.2057817,17.5912195 C11.7736503,17.9463698 12.6444258,18.2877495 13.5973767,18.5288217 C13.9545896,18.6191876 14.91583,18.8043406 15.2333781,18.8439457 C16.154557,18.9588379 16.657459,18.985974 17.9010457,18.9878885 C19.1954045,18.9898821 19.3687239,18.9805206 20.5827677,18.8430428 C20.8420099,18.8136867 21.9703312,18.5958811 22.3036108,18.5108594 C23.1525291,18.2942962 24.1743478,17.8766602 24.7117423,17.5266129 C24.9554423,17.3678717 24.9989573,17.3792854 24.9984728,17.6018197 C24.9975185,18.0359273 24.3899679,18.594638 23.5001953,18.9796582 C22.3270383,19.4873038 20.67029,19.8176338 18.8775102,19.9013501 C17.9607866,19.9441578 17.8317628,19.9440349 16.8229837,19.8993951 L16.8229837,19.8993945 Z M16.5764406,18.0927243 C14.5755644,17.902939 13.0942107,17.5625484 12.0877512,17.061299 C11.8676515,16.951682 11.6944705,16.8550376 11.7029049,16.8465326 C11.7113393,16.8380277 11.8636847,16.8684539 12.0414499,16.9141465 C12.458945,17.0214586 13.4875437,17.18483 14.1931894,17.2559049 C14.5370195,17.2905375 15.2712355,17.311779 16.1244446,17.311779 C17.3730371,17.311779 17.6475517,17.2978759 18.6515125,17.1837933 C19.2580325,17.1148727 20.2854909,16.9047007 20.8909464,16.7257065 C22.431229,16.2703433 23.4895645,15.6105122 23.8772368,14.8638729 L23.9873319,14.6518346 L24.192339,14.7802106 C24.6736751,15.0816232 25,15.497793 25,15.8102391 C25,16.0141461 24.7705061,16.3665227 24.4863684,16.5988951 C24.1664128,16.8605599 23.3881557,17.2421523 22.7400206,17.4551598 C22.2229011,17.6251094 20.8526739,17.9242525 20.3567694,17.9754628 C20.2098711,17.9906322 19.9510007,18.0211844 19.7815022,18.0433577 C19.4649937,18.0847602 16.907747,18.1241492 16.5764406,18.0927243 L16.5764406,18.0927243 Z M15.2204526,16.4385951 C15.1187536,16.4300735 14.7859204,16.4032898 14.4808233,16.379076 C14.1757256,16.3548615 13.7227028,16.30703 13.4741048,16.2727832 C10.948287,15.9248291 9.01578173,14.9915589 9.01578173,14.1197133 C9.01578173,14.0256503 9.0267665,13.937613 9.04019261,13.9240752 C9.05361872,13.9105374 9.163203,13.9630616 9.28371464,14.0407971 C10.4242439,14.7764897 12.2765031,15.2852273 14.5013681,15.4738672 C15.3651819,15.5471075 17.0541613,15.5361877 17.932428,15.451683 C20.0907211,15.2440203 21.7866661,14.763959 22.903759,14.0444782 C23.1476139,13.8874201 23.1909733,13.8990421 23.1904888,14.1213333 C23.1900383,14.3350668 23.0501126,14.5697357 22.7674653,14.8308981 C21.9593534,15.5775819 20.1977875,16.1378861 17.9529734,16.3622519 C17.3599497,16.4215242 15.6026662,16.47062 15.2204526,16.4385951 L15.2204526,16.4385951 Z M14.4791422,14.575957 C11.7788097,14.3564587 9.4524071,13.4996385 9.07342497,12.5850167 C8.85401599,12.0555032 9.32422576,11.4882728 10.3935996,10.9924434 C11.7722153,10.35323 13.8091141,9.99921994 16.1038992,10.0000013 C18.4292616,10.0007936 20.4158967,10.3504139 21.8563668,11.0123498 C22.5171658,11.3160055 23.0553238,11.7736659 23.1580196,12.1193022 C23.2246718,12.3436301 23.1512096,12.6116814 22.9578741,12.849596 C22.4087805,13.5252993 20.7599041,14.1675275 18.83642,14.4548788 C17.6639944,14.6300291 15.7862593,14.6822073 14.4791422,14.575957 Z" id="path845" fill="#009080" fill-rule="nonzero" opacity="0.699999988"></path>
            </g>
        </g>
    </g>
</svg>