<?xml version="1.0" encoding="UTF-8"?>
<svg width="38px" height="38px" viewBox="0 0 38 38" version="1.1" xmlns="http://www.w3.org/2000/svg" xmlns:xlink="http://www.w3.org/1999/xlink">
    <!-- Generator: Sketch 63.1 (92452) - https://sketch.com -->
    <title>ic_card_3_active@3x</title>
    <desc>Created with Sketch.</desc>
    <g id="assets" stroke="none" stroke-width="1" fill="none" fill-rule="evenodd">
        <g id="Group-11" transform="translate(1.000000, 1.000000)">
            <g id="Group-10" fill="#FFFFFF" stroke="#58DCC2">
                <circle id="Oval-Copy-4" cx="18" cy="18" r="18"></circle>
            </g>
            <g id="Group-9" transform="translate(7.000000, 8.000000)" fill="#1D9E89" fill-rule="nonzero">
                <g id="Shares-transparrent">
                    <path d="M17.6161212,19.8461803 C16.4377903,19.6598244 15.6792626,19.2908131 15.4125706,18.7741894 C15.3377945,18.6293368 15.3030261,18.3233931 15.3553894,18.2710293 C15.3680824,18.2583364 15.476511,18.34478 15.5963418,18.4631266 C16.0885179,18.9492055 17.1671842,19.2858533 18.2324715,19.2858533 C18.5899778,19.2858533 18.7528888,19.2663831 19.3551688,19.1516755 C19.913013,19.045431 20.5012267,18.7718734 20.8477234,18.4575407 L21.0523117,18.2719441 L21.0651559,18.4428133 C21.106474,18.9924764 20.3970394,19.5180706 19.2713593,19.7717721 C19.000696,19.8327733 17.8565565,19.8842059 17.6161212,19.8461803 L17.6161212,19.8461803 Z M10.2162251,19.682908 C9.31379848,19.530567 8.63550411,19.1999502 8.33786926,18.7673531 C8.22733581,18.6066982 8.20850213,18.5413792 8.20850213,18.3186826 L8.20850213,18.0580404 L8.3318333,18.228294 C8.59806472,18.595816 9.16940305,18.8729401 10.0942164,19.0831277 C10.3905761,19.1504829 11.765872,19.1544798 12.0218355,19.0887299 C12.1255498,19.0620886 12.3046926,19.0183656 12.4199307,18.9915675 C12.6200775,18.9450243 12.6694581,18.928425 12.933264,18.8190099 C13.3754024,18.6356314 13.7332004,18.3256794 13.8687552,18.1221124 C13.876127,18.1007037 13.9325522,18.104385 13.9465857,18.1143064 C13.989324,18.1452882 13.9492131,18.4674671 13.8471478,18.6866881 C13.7712097,18.8497902 13.6820485,18.9514939 13.4929826,19.0906764 C13.2472987,19.2715386 12.7379392,19.5117057 12.4408831,19.5867496 C11.8165143,19.7444812 10.8328352,19.7869995 10.2162251,19.682908 L10.2162251,19.682908 Z M3.28469261,19.6774164 C2.29086712,19.5594126 1.48080114,19.1680221 1.17330735,18.6572819 C1.0780088,18.4989938 1.0497805,18.1544247 1.13211078,18.1544247 C1.15819105,18.1544247 1.26566964,18.240565 1.37095242,18.3458474 C1.66720232,18.6420977 2.27312339,18.909854 2.94945451,19.0433877 C3.30166655,19.1129278 4.38252739,19.1323813 4.75135928,19.0758187 C5.21994293,19.0039583 5.5075944,18.9284493 5.8199307,18.7953162 C6.23612293,18.6179153 6.36379752,18.5374154 6.58469261,18.3131302 L6.82564499,18.0684797 L6.82564499,18.3273514 C6.82564499,18.5533342 6.80889566,18.6080396 6.69380716,18.757943 C6.36658293,19.1841563 5.73174339,19.5007296 4.92396541,19.6405046 C4.58617112,19.698955 3.64464152,19.7201559 3.28469261,19.6774164 Z M17.1120501,18.3423638 C16.7091668,18.2602908 16.4699103,18.183282 16.1913593,18.0460234 C15.6293661,17.7690958 15.3323117,17.4197458 15.3323117,17.0357444 C15.3323117,16.9134948 15.3406725,16.8134723 15.3508918,16.8134723 C15.3611107,16.8134723 15.4648686,16.9143405 15.5814648,17.0376238 C15.8882776,17.3620333 16.4083606,17.6069139 17.124735,17.7642717 C17.5414285,17.8558018 18.827054,17.8673386 19.2294545,17.7831582 C19.9993548,17.6220993 20.7486337,17.2517392 20.9317626,16.9417269 C21.0362734,16.7648042 21.073264,16.7809237 21.073264,17.0033898 C21.073264,17.2553685 20.9889592,17.4446909 20.7751934,17.6727626 C20.6124654,17.8463803 20.1240546,18.1339823 19.8580259,18.2128387 C19.227081,18.3998638 18.8916565,18.4460354 18.1573912,18.4469338 C17.7248917,18.4361882 17.4161558,18.404729 17.1120501,18.3423638 L17.1120501,18.3423638 Z M3.38945451,18.3193355 C2.617296,18.2026936 2.28297059,18.1090875 1.87738152,17.8959788 C1.16271257,17.5204706 0.90342141,16.9900012 1.20336229,16.5170431 C1.55932296,15.9755062 2.3369311,15.7373405 2.85513234,15.6099755 C3.08834743,15.5538781 3.34405699,15.536713 3.9551688,15.5361109 C4.71481539,15.5354119 4.86864861,15.5518805 5.3799307,15.6886597 C6.1191965,15.8864296 6.76487093,16.3623403 6.84072903,16.7653782 C6.89432312,17.0501261 6.8297944,17.2250178 6.5678029,17.5050874 C6.2376336,17.8580399 5.71831543,18.1168114 5.10754975,18.2327192 C4.40229512,18.3665584 3.87728251,18.3930262 3.38945451,18.3193355 Z M10.4504069,18.3173743 C9.74997425,18.2158202 9.43543627,18.123111 8.94460579,17.8735421 C8.7109109,17.7547174 8.35542651,17.4358888 8.2672459,17.2660287 C8.20864587,17.153149 8.18421246,16.7715676 8.23558518,16.7715676 C8.25048065,16.7715676 8.34975638,16.8530288 8.45619783,16.9525924 C8.84806309,17.3191363 9.27246362,17.5010976 10.1361212,17.672859 C10.5027987,17.7457825 11.6301349,17.757986 11.9299459,17.6922776 C12.0381042,17.668573 12.2208831,17.6294498 12.3361212,17.6053378 C12.5423077,17.5621952 12.8650343,17.4506225 13.153264,17.3228352 C13.4468278,17.1926832 13.7945531,16.8998439 13.8576127,16.7296628 C13.8942454,16.6308019 13.8980877,16.6346664 13.925829,16.7982768 C14.0139682,17.3180903 13.5452186,17.8056384 12.6713593,18.1030549 C12.0048578,18.3298976 11.1234275,18.414955 10.4504069,18.3173752 L10.4504069,18.3173743 Z M17.7627878,17.0357122 C17.3884266,16.9954446 16.8386927,16.8864155 16.6104069,16.8071602 C16.0442245,16.610595 15.5719256,16.2807794 15.4143691,15.971943 C15.3292036,15.8050049 15.3017384,15.47252 15.3731135,15.47252 C15.3955547,15.47252 15.4958877,15.554492 15.5960757,15.65468 C15.9401423,15.9987466 16.4570853,16.2229823 17.2945562,16.3914348 C17.6226453,16.4574281 18.8132619,16.4478047 19.1875498,16.3761341 C19.9220376,16.2354913 20.5359545,15.9620438 20.8634515,15.6296628 C20.9486104,15.5432342 21.0306557,15.47252 21.0457749,15.47252 C21.1022051,15.47252 21.07064,15.8215908 21.0008757,15.969044 C20.8088077,16.3749973 20.1568911,16.7624994 19.3761212,16.9348059 C18.9026418,17.0392971 18.2029597,17.0830587 17.7627878,17.0357122 L17.7627878,17.0357122 Z M16.0132841,16.2041073 C16.0132841,16.1704962 15.9987276,16.1429962 15.9809363,16.1429962 C15.9631449,16.1429962 15.9281871,16.1704962 15.9032525,16.2041073 C15.8783179,16.2377184 15.8928743,16.2652184 15.9356003,16.2652184 C15.9783263,16.2652184 16.0132841,16.2377184 16.0132841,16.2041073 Z M10.3665974,16.896419 C9.65978179,16.8051207 9.01064015,16.5616494 8.59671539,16.2325961 C8.34230488,16.0303494 8.20850213,15.7978413 8.20850213,15.557999 C8.20850213,15.3527528 8.2789675,15.3368072 8.42242469,15.509591 C8.65935421,15.7949557 9.23897291,16.0899498 9.7799307,16.2004874 C10.786196,16.4061044 11.5042568,16.4018473 12.4408831,16.1847115 C13.0348236,16.0470196 13.7616877,15.6080131 13.848666,15.3344484 C13.8772631,15.2445057 13.8789187,15.2442769 13.9108049,15.3258533 C14.0095971,15.5785994 13.8769379,15.9516632 13.6021713,16.1937923 C13.415447,16.3583363 12.9651984,16.6031762 12.6504069,16.71135 C12.1356098,16.8882531 11.0097169,16.9794902 10.3665974,16.896419 L10.3665974,16.896419 Z M17.5951688,15.6139427 C16.6760993,15.5278112 15.7094466,15.0820216 15.4382347,14.6192338 C15.3381146,14.4483919 15.2935556,14.1423874 15.3592342,14.0767084 C15.3740417,14.0619009 15.4926292,14.1483295 15.6227615,14.2687717 C16.0377062,14.6528188 16.4741347,14.8414891 17.2522336,14.9732013 C18.5341619,15.1901984 19.8938906,14.9620789 20.6568522,14.4020138 C20.7701338,14.3188571 20.8953779,14.1957028 20.9351719,14.1283367 C21.0373098,13.9554306 21.073404,13.9755771 21.0723664,14.2049009 C21.0713465,14.4203941 20.9679754,14.684785 20.8275538,14.8309933 C20.5424899,15.1278038 19.9031972,15.4254961 19.2751722,15.5538743 C19.0336662,15.6032419 17.9097755,15.6434264 17.5951688,15.6139427 L17.5951688,15.6139427 Z M10.7646926,15.5452943 C9.56530667,15.4656815 8.65686297,15.0949107 8.30829539,14.5427442 C8.19136518,14.3575151 8.17140762,13.9896144 8.26814183,13.8025511 C8.55094282,13.2917773 8.92102975,13.1853191 9.34080526,13.0295113 C9.98628987,12.792731 10.4899277,12.7068057 11.0990595,12.7068057 C11.6257806,12.7068057 12.3432542,12.8340721 12.7551688,13.0005681 C12.9643737,13.1274256 13.3331545,13.2945749 13.3834427,13.3422541 C13.4593213,13.4191384 13.7185723,13.6294253 13.745349,13.652473 C13.8568073,13.7484093 13.947143,14.0765387 13.9478671,14.1734723 C13.9491511,14.3477773 13.7616822,14.6930851 13.5824912,14.8464662 C13.011675,15.3350635 11.8685449,15.6185652 10.7646926,15.5452943 L10.7646926,15.5452943 Z M17.2389783,14.1552119 C16.8048781,14.0658387 16.4960484,13.9635349 16.1456278,13.7930249 C15.5936088,13.5244204 15.3315544,13.1982555 15.3331662,12.7818085 L15.3340369,12.560139 L15.5112706,12.7552086 C15.9847583,13.2763467 16.7993752,13.5857685 17.8675514,13.6502118 C19.1701002,13.7287945 20.4734904,13.3383662 20.9073572,12.7396431 C20.9694266,12.6539898 21.0321479,12.5958469 21.0467383,12.6104369 C21.0953877,12.6590866 21.0740518,13.0009494 21.0132899,13.1463728 C20.8407144,13.559405 20.1276424,13.9716946 19.2803152,14.1483592 C18.9221254,14.2230402 17.5901524,14.2275119 17.23898,14.1552119 L17.2389783,14.1552119 Z M17.6789783,12.8329034 C16.7499397,12.7335489 16.0778946,12.4894029 15.674568,12.104726 C15.311542,11.7584862 15.2358025,11.4080485 15.450988,11.0702479 C15.8629818,10.4234965 16.9171011,10.0275807 18.2321539,10.0256662 C18.5248766,10.02525 18.8643052,10.0438896 18.9864396,10.0670978 C19.4015347,10.1459751 19.6274379,10.2032296 19.676298,10.2419399 C19.7031099,10.2631823 19.7771619,10.2900122 19.8408584,10.3015629 C20.2297681,10.3720856 20.7925801,10.7567244 20.9618028,11.0676422 C21.3554939,11.7909826 20.648773,12.4833414 19.2085021,12.7853117 C18.9169627,12.8464365 18.0560168,12.8732254 17.6789783,12.8329034 L17.6789783,12.8329034 Z M0.25978524,12.3940428 C0.07702684,12.3145557 -0.0198871426,12.1151075 0.00725205905,11.8743311 C0.0305871448,11.6673015 0.0590723257,11.6355146 0.894765562,10.8839485 C1.09978545,10.6995676 1.30703509,10.5109962 1.35532069,10.4649009 C1.40360629,10.4188057 1.59346838,10.2500414 1.77723585,10.0898692 C1.96100373,9.92969707 2.2339307,9.68419425 2.38374023,9.54430735 C2.63079059,9.31361996 3.1495355,8.84744499 3.37310286,8.65520773 C3.42172872,8.613396 3.63220377,8.4229267 3.84082495,8.2319424 C4.45814118,7.66681562 4.32579002,7.70610301 4.98183547,7.89324423 C5.59879215,8.06923543 5.95067985,8.17161798 6.11326404,8.22243589 C6.17088309,8.24044571 6.30288309,8.27841227 6.40659737,8.30680568 C6.51031166,8.33519909 6.64231166,8.3728216 6.6999307,8.39041112 C7.17939535,8.53677691 7.4924453,8.62817455 8.14564499,8.81249935 C8.56050213,8.92956659 8.95650213,9.04175653 9.02564499,9.06181006 C9.09478785,9.08186316 9.21735928,9.11650373 9.29802594,9.1387891 C9.37869261,9.16107406 9.60497832,9.2277416 9.80088309,9.2869392 C9.99678785,9.3461368 10.1805641,9.39496674 10.2092743,9.39545032 C10.237985,9.39593223 10.4394509,9.25018663 10.6569764,9.07156758 C10.8745015,8.89294853 11.2729006,8.56766282 11.5423075,8.34871044 C11.8117141,8.12975806 12.053391,7.93097318 12.0793674,7.90696594 C12.1053441,7.88295912 12.3151688,7.71337558 12.545645,7.5301139 C12.7761212,7.34685223 12.9741212,7.18688373 12.985645,7.17462869 C13.0150227,7.14338701 13.801058,6.50313966 14.3265974,6.0823861 C14.7368173,5.7539592 14.9426376,5.58271162 15.0552944,5.4760925 C15.0808919,5.45186651 15.3375498,5.2457923 15.625645,5.01814971 C15.9137402,4.79050712 16.1588831,4.5928805 16.1704069,4.57898027 C16.188195,4.55752335 16.340316,4.43231947 16.9440442,3.94223443 C16.9910199,3.90410127 17.248243,3.6966727 17.5156516,3.48128205 C18.130661,2.98590742 19.1180738,2.17811775 19.145645,2.14780552 C19.1571688,2.13513604 19.2956188,2.02131294 19.4533118,1.89486528 L19.7400259,1.66496042 L19.5580738,1.63348294 C19.4579997,1.61617033 19.0555498,1.58334796 18.6637402,1.5605444 C17.8441765,1.51284525 17.0056237,1.44876072 16.675811,1.40862145 L16.4478818,1.38088171 L16.5710491,1.27659915 C16.6960523,1.17076231 17.3533528,0.570759745 17.739594,0.209918548 C17.9756213,-0.0105876613 17.9553331,-0.006915128 18.6008831,0.0540131387 C18.8428831,0.0768537482 19.3331688,0.113483539 19.6904069,0.13541272 C21.1996844,0.228060377 21.6888412,0.263079767 21.8231426,0.288099005 L21.9654026,0.314600415 L21.9388056,0.864036381 C21.9241775,1.16622612 21.8837541,2.06301451 21.8489752,2.85689951 L21.7857418,4.30032701 L21.6495027,4.42832804 C21.5745715,4.49872888 21.3718355,4.6763221 21.1989783,4.82298038 C21.0261212,4.96963825 20.8658355,5.11115021 20.8427878,5.13745173 C20.8197402,5.16375326 20.6774886,5.29250396 20.5266734,5.42356446 L20.2524642,5.6618563 L20.2643312,5.25575935 C20.2708582,5.03240613 20.297534,4.38766282 20.3236105,3.82299607 C20.349687,3.2583294 20.3640268,2.74089975 20.3554765,2.67315237 C20.3418164,2.5649163 20.3323066,2.55729194 20.2770736,2.61029522 C20.2425021,2.64347118 20.1451343,2.72218693 20.0607008,2.78521915 C19.9762674,2.84825137 19.8819816,2.92402897 19.851177,2.95361377 C19.8203724,2.98319858 19.6443117,3.12962676 19.4599307,3.2790097 C19.2755498,3.42839267 19.115264,3.56092331 19.1037402,3.57352223 C19.0922164,3.5861211 18.9602248,3.68983539 18.8104258,3.80399842 C18.6606267,3.91816141 18.5085853,4.03985321 18.472556,4.07442464 C18.3921462,4.15158061 18.2350612,4.28067116 17.3018355,5.03650735 C16.525673,5.66513493 16.2259554,5.91180061 16.1525069,5.98239882 C16.1277805,6.00616594 15.9849783,6.11900667 15.8351688,6.23315691 C15.6853593,6.34730674 15.515645,6.4809515 15.4580259,6.5301456 C15.1444501,6.79786884 14.5324947,7.30075615 14.3685021,7.42548442 C14.2647878,7.50436678 14.020134,7.70193432 13.8248268,7.86452312 C13.6295196,8.02711192 13.4332775,8.18842472 13.3887332,8.22299615 C13.3441888,8.25756758 13.2399855,8.34348952 13.1571704,8.41393394 C13.0743553,8.48437836 12.9477124,8.58809265 12.8757422,8.64441013 C12.6339182,8.83363947 11.6671393,9.6192997 11.5160056,9.74941021 C11.3143934,9.92297722 11.1890399,10.0247731 11.0152944,10.156023 C10.9350824,10.216616 10.8034545,10.3252458 10.7227878,10.3974217 C10.5423832,10.5588376 10.4140977,10.595925 10.2450329,10.5355406 C10.1736079,10.5100298 10.0114545,10.4612741 9.88469261,10.4271942 C9.7579307,10.3931147 9.52221642,10.325286 9.36088309,10.276464 C9.08060895,10.1916488 8.64860815,10.0666431 8.33421642,9.97938312 C8.25354975,9.95699383 8.15926404,9.93033402 8.12469261,9.92013901 C8.09012118,9.909944 7.99112118,9.88220179 7.90469261,9.85848998 C7.81826404,9.83477775 7.68154975,9.79651996 7.60088309,9.77347234 C7.52021642,9.75042472 7.38350213,9.71164731 7.29707356,9.68730023 C7.21064499,9.66295272 7.07864499,9.62523844 7.00374023,9.6034907 C6.65922358,9.50346236 6.57685013,9.47971577 6.30183547,9.40114644 C6.14050213,9.35505455 5.87650213,9.2769885 5.7151688,9.22766617 C5.55383547,9.17834385 5.35583547,9.11962396 5.2751688,9.09717768 C5.19450213,9.07473097 5.06250213,9.03726015 4.98183547,9.0139083 C4.66502876,8.92219806 4.65612903,8.92283878 4.53227615,9.04627177 C4.46628286,9.11204171 4.16963737,9.38271044 3.87306438,9.64775806 C3.57649139,9.91280568 3.2190685,10.2349892 3.07879063,10.3637214 C2.93851276,10.4924537 2.73888309,10.6715693 2.6351688,10.7617555 C2.53145451,10.8519421 2.34288309,11.0222921 2.21612118,11.1403106 C2.08935928,11.2583294 1.91021642,11.4184505 1.81802594,11.4961348 C1.66467463,11.6253565 1.48171425,11.7922271 1.02183547,12.2223058 C0.761870895,12.4654242 0.539256876,12.5155934 0.25978524,12.3940428 L0.25978524,12.3940428 Z" id="path4312"></path>
                </g>
            </g>
        </g>
    </g>
</svg>