<?xml version="1.0" encoding="UTF-8"?>
<svg width="24px" height="24px" viewBox="0 0 24 24" version="1.1" xmlns="http://www.w3.org/2000/svg" xmlns:xlink="http://www.w3.org/1999/xlink">
    <!-- Generator: Sketch 63.1 (92452) - https://sketch.com -->
    <title>ic_dashboard@3x</title>
    <desc>Created with Sketch.</desc>
    <g id="assets" stroke="none" stroke-width="1" fill="none" fill-rule="evenodd">
        <g id="Deleie-Icon" transform="translate(1.000000, 1.000000)" fill="#1D9E89" fill-rule="nonzero">
            <path d="M10.2748486,21.9027618 C8.48786807,21.7750515 6.54483115,21.1157461 5.06756566,20.1358414 C2.44081077,18.3934537 0.676374717,15.7051203 0.16724363,12.6696034 C-0.0113457759,11.6048262 0.0144084594,9.88993423 0.224510863,8.85635821 C0.715474818,6.4411144 2.02554086,4.17309145 3.80812981,2.65229646 C5.36800924,1.32150346 7.23528174,0.422487692 9.09943356,0.104748403 C9.69457978,0.00330741961 10.049356,0.00318884146 10.1598348,0.00968211989 C10.148401,0.620696353 10.1728721,2.16290005 10.1640438,2.74034268 C10.1369955,2.75705941 9.85360896,2.81606538 9.53429653,2.87146705 C8.11500196,3.11771872 6.77978252,3.75758145 5.68750224,4.71492513 C3.69694458,6.45957468 2.73212318,8.68145204 2.83537935,11.2830488 C2.91224365,13.2196872 3.52134705,14.7693438 4.79454381,16.267476 C5.77478308,17.4208941 7.05010829,18.2714055 8.50903429,18.7446625 C9.35086644,19.0177416 9.82626857,19.0787469 11.0759672,19.074061 C12.2559634,19.0696364 12.2929449,19.065497 13.1253732,18.8446552 C14.9618604,18.3574378 16.3227613,17.4375291 17.6354884,15.7960166 C17.8733195,15.4986185 18.0168507,15.3664059 18.0627999,15.4024027 C18.1311244,15.4559281 18.84023,15.8394565 19.6656293,16.2693124 C19.8990475,16.3908732 20.1555601,16.5265085 20.2356573,16.5707254 L20.3837857,16.6980715 C20.3837857,16.8399598 19.283252,18.1540352 18.7081098,18.7132832 C16.3827351,20.9743957 13.3474401,22.1223514 10.2748467,21.9027618 L10.2748486,21.9027618 Z M20.5592175,14.839069 C20.2673016,14.6965632 19.9899906,14.5486394 19.942971,14.5103496 C19.895952,14.4720597 18.5818514,13.7994815 17.0227477,13.0157306 C15.4636441,12.2319803 14.152054,11.5607942 14.1081027,11.5242064 C14.064152,11.487618 13.544194,11.2216632 12.9526405,10.9331952 L11.8770895,10.4087078 L11.8770895,5.20478046 L11.8770895,0.000853039216 L12.2314312,0.0291566739 C12.5878713,0.0576279277 12.7990897,0.0875168319 13.1403948,0.157781381 C13.7682508,0.271794717 14.4213759,0.486406381 14.9149092,0.656713064 C15.2022058,0.759102975 16.2943136,1.27322369 16.7762491,1.58885522 C17.1864974,1.85753685 17.4759619,2.05652001 17.5660652,2.13178829 C18.1526856,2.62182671 18.3990955,2.84775882 18.8515843,3.31047434 C19.1456799,3.61121662 19.4954886,3.99593395 19.6289368,4.16540174 C20.5423829,5.32540264 21.2632465,6.77161541 21.6188922,8.15769675 C21.7717368,8.75339081 21.7880445,8.82875036 21.9018141,9.46512162 C21.9834291,9.92163395 21.9953171,11.5292701 21.9211204,12.0758197 C21.8780319,12.3932162 21.8380473,12.6982583 21.8322651,12.7536909 C21.7867343,13.1902011 21.2818023,14.9001427 21.1618783,15.023943 C21.1060981,15.081525 20.9709571,15.0400689 20.5592175,14.839069 L20.5592175,14.839069 Z" id="path22"></path>
        </g>
    </g>
</svg>