<?xml version="1.0" encoding="UTF-8"?>
<svg width="24px" height="24px" viewBox="0 0 24 24" version="1.1" xmlns="http://www.w3.org/2000/svg" xmlns:xlink="http://www.w3.org/1999/xlink">
    <!-- Generator: Sketch 63.1 (92452) - https://sketch.com -->
    <title>ic_detail_4@3x</title>
    <desc>Created with Sketch.</desc>
    <g id="assets" stroke="none" stroke-width="1" fill="none" fill-rule="evenodd">
        <g id="Group-16" transform="translate(2.000000, 2.000000)" fill="#1D9E89" fill-rule="nonzero">
            <g id="Boligpriser">
                <path d="M0.917735679,19.241558 C0.563766543,19.073679 0.254166543,18.7962988 0.180125802,18.5297309 C0.0723554321,18.1417321 0.0723961728,10.2525444 0.180173951,9.39300494 C0.325986296,8.23012753 0.596597407,7.84161765 2.97447025,5.38130062 C6.79371358,1.42963753 7.49195556,0.757168519 8.06542531,0.478254444 C8.77920506,0.131099259 9.34543975,0.0371958025 10.4177173,0.0881538272 C11.2509519,0.127751728 11.3524333,0.151075926 11.9290272,0.435508642 C12.4515778,0.693281728 12.7103012,0.903337037 13.6027074,1.79435506 C14.1832765,2.37402198 14.7112407,2.84829494 14.7759617,2.84829494 C14.8694383,2.84829494 14.8936346,2.72481951 14.8936346,2.24777506 C14.8936346,1.16717333 15.1671012,0.927100864 16.457479,0.874904691 C17.6083173,0.82835284 18.4461543,0.825339383 18.4678,1.43566519 L18.4846741,1.91144074 L18.4647691,4.27658765 C18.445242,6.59677086 18.4482136,6.64715395 18.6210519,6.92681235 C19.032279,7.60791272 19.9765926,8.24349185 19.9734173,9.05914444 C19.9673926,10.4305407 19.9676395,13.6639111 19.9676395,13.6639111 C19.9814346,16.2219951 19.9714914,18.3995432 19.9455519,18.5029049 C19.8980914,18.6920025 19.7677667,18.8921691 19.5242148,19.0148198 C19.320316,19.1175025 19.027337,19.1440272 18.8603049,19.1442691 C18.7810481,19.1443926 18.4374605,19.1275877 18.2602099,19.0985123 C17.9741062,19.0515827 17.8687914,18.9455728 17.7450963,18.7821444 C17.6637654,18.6746889 17.6300136,17.7656494 17.5980827,14.1511062 L17.5583111,9.64918889 L17.3452136,9.24537531 C17.2280099,9.02327531 16.8521716,8.55357074 16.510016,8.20158432 C12.4415938,4.01626716 11.0918926,2.66059346 10.8889617,2.55565395 C10.5693432,2.39037222 9.51198148,2.39127383 9.19130642,2.5571021 C8.97598395,2.66844963 8.13638519,3.50257889 5.22619395,6.49638383 C3.26487889,8.51404975 3.11531099,8.67677815 2.83762333,9.09513333 L2.56452704,9.50657037 L2.56440358,13.9129531 C2.56428012,18.8372198 2.58759123,18.6240778 1.99723321,19.0955309 C1.70451222,19.3292938 1.15386407,19.3535469 0.917735679,19.241558 Z M9.35734963,17.7461383 C8.92300704,17.6488914 8.82249926,17.5855506 8.40062901,17.1432086 C7.77203704,16.4841123 5.98453988,14.3949111 5.98607654,14.3211148 C5.98973679,14.1454642 6.16940728,14.0381407 6.51329395,14.0061889 C6.9571984,13.9649457 7.3185279,14.0781296 7.3917342,14.2813531 C7.44003407,14.415437 7.96744148,15.0497728 8.54057235,15.6631148 C8.68800062,15.8208852 8.96271938,16.1161877 9.15105827,16.319342 C9.43316444,16.623637 9.54269136,16.6887123 9.77274321,16.6887123 C9.92632963,16.6887123 10.1197753,16.6524346 10.2026222,16.6080975 C10.3461173,16.5313012 11.8490173,14.8630037 12.2687272,14.3146136 C12.4399889,14.0908444 12.529242,14.0485383 12.9119062,14.0097444 C13.183216,13.9822395 13.4232543,14.0005716 13.5283617,14.0568222 C13.8564765,14.2324247 13.7443321,14.4831025 12.9647259,15.3167284 C12.5600519,15.749442 11.9247049,16.4313778 11.5528432,16.8321407 C11.0164395,17.4102358 10.8027691,17.5842074 10.5187889,17.6740728 C9.94473086,17.8557346 9.86808765,17.8604901 9.35734963,17.7461383 L9.35734963,17.7461383 Z M6.60131506,10.4780148 C6.3244884,10.316779 6.43924691,10.0300556 7.03683012,9.38988889 C7.35292296,9.0512716 7.77350457,8.59654852 7.97145593,8.3793942 C8.16940741,8.16224111 8.57256444,7.74428185 8.86736049,7.45059889 C9.33680272,6.98292889 9.45781877,6.90532309 9.84200988,6.82556494 C10.1006889,6.77186321 10.4682198,6.75762679 10.7377852,6.79086519 C11.1718556,6.84438951 11.2232765,6.8757563 11.7576938,7.41301272 C12.0672296,7.72419296 12.7450259,8.47430901 13.2639086,9.07993827 C14.0342383,9.97905062 14.1922432,10.2052568 14.1250926,10.3128481 C13.8984864,10.6759235 12.9207617,10.5852605 12.7525543,10.1855765 C12.6698469,9.98905309 12.4318877,9.70734198 11.4932012,8.69467815 C10.9287198,8.08571025 10.6040173,7.85948062 10.2944605,7.85948062 C10.0385481,7.85948062 9.93744938,7.92988062 9.40713235,8.47737691 C8.7312663,9.17513333 7.97691815,10.0482963 7.84658358,10.283721 C7.79869494,10.3702235 7.67341531,10.4650889 7.56818444,10.4945346 C7.27346617,10.5770025 6.75608827,10.568163 6.60131506,10.4780148 L6.60131506,10.4780148 Z" id="path7217"></path>
            </g>
        </g>
    </g>
</svg>