<?xml version="1.0" encoding="UTF-8"?>
<svg width="100px" height="100px" viewBox="0 0 100 100" version="1.1" xmlns="http://www.w3.org/2000/svg" xmlns:xlink="http://www.w3.org/1999/xlink">
    <!-- Generator: Sketch 63.1 (92452) - https://sketch.com -->
    <title>ic_face@3x</title>
    <desc>Created with Sketch.</desc>
    <g id="assets" stroke="none" stroke-width="1" fill="none" fill-rule="evenodd">
        <g id="Group" transform="translate(2.000000, 2.000000)">
            <path d="M96,72.2412334 L96,84 C96,90.627417 90.627417,96 84,96 L72.1068074,96 L72.1068074,96 M23.972841,96 L12,96 C5.372583,96 0,90.627417 0,84 L0,72.1963397 L0,72.1963397 M0,24.1746077 L0,12 C0,5.372583 5.372583,0 12,0 L24.2804949,0 L24.2804949,0 M72.1926335,0 L84,0 C90.627417,0 96,5.372583 96,12 L96,23.9501392 L96,23.9501392" id="Shape" stroke="#222222" stroke-width="4" stroke-linecap="round" stroke-linejoin="round"></path>
            <g id="Group-2" transform="translate(23.000000, 25.000000)">
                <rect id="Rectangle" fill="#222222" x="0" y="0" width="5.6" height="16.8" rx="2.8"></rect>
                <rect id="Rectangle-Copy" fill="#222222" x="42" y="0" width="5.6" height="16.8" rx="2.8"></rect>
                <polyline id="Path-2" stroke="#222222" stroke-width="4" stroke-linecap="round" stroke-linejoin="round" points="24.7878815 3.18501487 24.7878815 27.7119299 17.4211232 30.1080159"></polyline>
                <path d="M5.6,39.1488181 C18.3003923,48.2743142 30.4337256,48.2743142 42,39.1488181" id="Path-3" stroke="#222222" stroke-width="4" stroke-linecap="round" stroke-linejoin="round"></path>
            </g>
        </g>
    </g>
</svg>