<?xml version="1.0" encoding="UTF-8"?>
<svg width="30px" height="30px" viewBox="0 0 30 30" version="1.1" xmlns="http://www.w3.org/2000/svg" xmlns:xlink="http://www.w3.org/1999/xlink">
    <!-- Generator: Sketch 63.1 (92452) - https://sketch.com -->
    <title>ic_detail_1@3x</title>
    <desc>Created with Sketch.</desc>
    <g id="assets" stroke="none" stroke-width="1" fill="none" fill-rule="evenodd">
        <g id="Group-11" fill="#61BBAD" fill-rule="nonzero">
            <g id="Group-3">
                <path d="M0.0532767717,28.4838889 C0.00586581417,28.3215324 -0.00949166073,26.0002267 0.00556683348,21.2724162 L0.0277731346,14.3003701 L0.211862888,13.6665477 C0.434695451,12.8993348 0.883985876,11.964182 1.27227423,11.4594113 C1.83095625,10.7331321 10.4510634,1.48924326 10.8411283,1.19812279 C11.367281,0.805434376 12.3148682,0.354334305 12.9675312,0.185845965 C13.6552624,0.00830480647 14.8164972,-0.0532093248 15.5249057,0.0503726829 C16.5409991,0.198945656 17.4888755,0.593477162 18.3032455,1.2067899 C18.5657189,1.40446117 19.4140505,2.25440032 20.2494389,3.15666943 C21.0639355,4.0363753 21.7609525,4.76633855 21.7983667,4.77880858 C21.8425738,4.79354912 21.8736332,4.34642704 21.8870769,3.50176488 L21.9077595,2.20204534 L22.1108766,1.9129848 C22.222592,1.75400171 22.4477657,1.54886426 22.6112627,1.45712681 C22.9027043,1.29360272 22.9366534,1.29033144 24.3429718,1.29033144 L25.777412,1.29033144 L26.095816,1.47749461 C26.2709407,1.58043445 26.4961145,1.78838032 26.5962021,1.93959909 L26.7781842,2.2145404 L26.7963857,6.23803245 L26.8145873,10.2615266 L27.2989902,10.7797911 C27.9110312,11.4346109 28.1530242,11.7876979 28.514845,12.5538099 C28.8928909,13.3542755 29.0677905,14.0446832 29.1516614,15.0676287 C29.1939461,15.5833871 29.2124104,18.2691574 29.2000467,22.106393 C29.1803023,28.236621 29.1783799,28.314798 29.0407362,28.6121608 C28.7466948,29.2474093 28.1919522,29.6092552 27.5121005,29.6092552 C26.9984688,29.6092552 26.648407,29.4502596 26.3062805,29.0615847 C25.7860457,28.4705661 25.8107877,28.8482638 25.8107877,21.4974044 C25.8107877,14.2889404 25.8257993,14.5643175 25.3904551,13.7845345 C25.1394427,13.3349209 16.6102511,4.09322333 16.1740078,3.79816858 C15.7730945,3.52700936 15.408774,3.40411036 14.8578944,3.35419059 C13.9435315,3.27133291 13.1955744,3.53068719 12.5732415,4.14639561 C11.9380159,4.7748597 4.03060893,13.3475703 3.87348248,13.5781232 C3.78887491,13.702269 3.63875908,14.0056301 3.53989175,14.2522621 L3.36011595,14.7006789 L3.32675688,21.5392888 C3.28992137,29.090557 3.3213673,28.5758307 2.86514403,29.09544 C2.39023133,29.6363344 1.552887,29.7790779 0.865175111,29.4363759 C0.481136911,29.2450012 0.168393513,28.8781035 0.0532767717,28.4838889 Z" id="path2570-path"></path>
                <path d="M2.08333333,20.4166667 C4.57733888,23.7159275 7.08943112,25.3655579 9.61961008,25.3655579 C13.4148785,25.3655579 14.8371584,19.5636538 19.0038251,19.5636538 C21.7816028,19.5636538 24.3961925,20.9068026 26.8475941,23.5931001 L27.5121005,29.6092552 L1.62560874,29.621859 L2.08333333,20.4166667 Z" id="Path-2"></path>
            </g>
        </g>
    </g>
</svg>