<?xml version="1.0" encoding="UTF-8"?>
<svg width="32px" height="32px" viewBox="0 0 32 32" version="1.1" xmlns="http://www.w3.org/2000/svg" xmlns:xlink="http://www.w3.org/1999/xlink">
    <!-- Generator: Sketch 63.1 (92452) - https://sketch.com -->
    <title>ic_card_2@3x</title>
    <desc>Created with Sketch.</desc>
    <g id="assets" stroke="none" stroke-width="1" fill="none" fill-rule="evenodd">
        <g id="Group-2">
            <circle id="Oval-Copy" fill="#FFFFFF" cx="16" cy="16" r="16"></circle>
            <g id="Utbytte-Transparrent" opacity="0.699999988" transform="translate(7.000000, 7.000000)" fill="#1D9E89" fill-rule="nonzero">
                <path d="M9.78044248,16.6223667 C8.63117594,16.4656841 7.03449177,16.164574 6.05368192,15.919557 C5.78875234,15.8533748 5.44878051,15.7904843 5.29818845,15.7798009 L5.02438563,15.7603761 L5.03466896,13.7353842 C5.04492439,11.7159186 5.04525651,11.7101545 5.15635961,11.6231334 C5.52652885,11.333199 6.30605459,11.0245873 6.93530772,10.9188543 C7.32756473,10.8529433 8.64389358,10.8874993 11.9404511,11.0502472 C13.4206778,11.1233246 13.5298146,11.1477443 13.7120725,11.4466574 C13.9300976,11.8042296 13.7713513,12.2702937 13.391459,12.3879488 C13.3017379,12.4157358 12.6122735,12.4760084 11.8593157,12.5218876 C10.5783875,12.5999366 10.0078154,12.6640638 9.36213262,12.8025477 C9.10867183,12.8569092 9.09598868,12.8673243 9.0970489,13.020228 C9.09959425,13.3872678 9.47730524,13.8800221 9.9508467,14.1152415 C10.6369337,14.4560378 10.2781927,14.2413698 9.98325938,14.0778882 C9.51796293,13.8199741 9.14663966,13.3379726 9.14663966,12.9919021 C9.14663966,12.8917501 10.0372127,12.7189095 10.7838208,12.6741615 L11.3308606,12.6413746 L11.50812,12.7970108 C11.7607665,13.0188367 11.9943294,13.0118425 12.2169625,12.7757829 C12.3768188,12.6062853 12.4024107,12.5976483 12.8314004,12.5684133 C13.4115566,12.5288757 13.5706873,12.4768323 13.7556887,12.2661279 C14.0304063,11.9532417 14.0113455,11.5519928 13.7066182,11.2331251 L13.5555348,11.0750309 L13.6375413,10.7589088 C13.8460609,9.95509927 13.3974852,9.06384828 12.5687104,8.6353058 L12.2399726,8.46532242 L12.2420414,7.80616749 C12.244029,7.17272569 12.247485,7.15158304 12.3305861,7.26417938 C12.5598651,7.57483707 12.6293861,7.63352315 12.7973419,7.65819076 C13.0495132,7.69522766 13.2883879,7.53736411 13.3320078,7.30484873 C13.4106581,6.88560693 12.9985251,6.34427138 12.4750739,6.17926766 L12.1888932,6.08905673 L12.1888932,5.77822513 C12.1888932,5.50385392 12.172212,5.45141206 12.046682,5.3311467 C11.8501494,5.14285656 11.5642567,5.14285656 11.3677241,5.3311467 C11.2362941,5.45706456 11.2255129,5.49666101 11.2255129,5.85343775 L11.2255129,6.23948146 L10.99429,6.3518182 C10.4387359,6.62172744 10.0100819,7.2089427 10.0091069,7.70142676 C10.0081536,8.18284107 10.403751,8.71909961 10.9839275,9.02286101 L11.2623673,9.16864276 L11.2946446,9.62336332 C11.3416661,10.2858085 11.3341969,10.8230689 11.2779654,10.8230689 C11.1881236,10.8230689 10.9253459,10.5276057 10.8977841,10.3955988 C10.8828233,10.3239466 10.858247,10.2063154 10.8431691,10.1341952 C10.7682079,9.77563977 10.311087,9.63380789 10.0246153,9.88022028 C9.90587662,9.98235482 9.8827702,10.0420606 9.88235138,10.2478259 C9.88209786,10.382942 9.89977893,10.557755 9.92169127,10.6362989 L9.96153161,10.7791063 L9.16112789,10.7377073 C7.45658569,10.6495438 6.68557825,10.6928457 6.12419121,10.9082697 C6.05049414,10.93655 6.0438889,10.9147396 6.07399403,10.7425156 C6.13191397,10.4111696 6.35326631,9.7144271 6.5960929,9.09912524 C7.47682732,6.86741882 9.07124045,4.61522738 10.4343566,3.67737891 C10.6067647,3.55875896 10.7189082,3.52081906 10.9050713,3.5181288 L11.1494566,3.51459725 L10.9086115,3.4405382 C10.7566149,3.39379981 10.6677664,3.33746184 10.6677664,3.28782068 C10.6677664,3.22559894 10.7074988,3.2151924 10.8579073,3.2380201 C11.4106325,3.32190796 11.821968,3.32622598 12.138189,3.25146002 C12.6055643,3.14095574 12.705589,3.29136936 12.2753905,3.45777931 C12.1192535,3.51817656 12.1228448,3.51956485 12.366358,3.49294893 C12.5920339,3.46828264 12.6477243,3.48354203 12.8734002,3.63187922 C13.2135992,3.85549281 14.0508086,4.66905854 14.4557564,5.16954777 C15.9256339,6.98622186 17.2016817,9.69501854 17.333961,11.2794069 C17.3920219,11.9748316 17.1874359,12.8232502 16.8986647,13.0845843 C16.7454974,13.2231995 16.7822726,13.2549896 17.0964593,13.2568717 C17.4431941,13.2589506 17.808479,13.4172451 17.9048748,13.6118013 C17.9875181,13.778601 17.9881519,14.2941296 17.9057926,14.3597221 C17.8188673,14.4289526 14.7131873,15.541848 12.9494545,16.1357856 L11.5043861,16.6224139 L10.7184706,16.632759 C10.2862171,16.6384491 9.86410445,16.6337731 9.78044248,16.6223667 L9.78044248,16.6223667 Z M10.6540342,14.3417307 C10.5919479,14.344778 10.3897171,14.2929254 10.3464603,14.2955954 C10.3029769,14.2982777 10.5250153,14.3600025 10.5874849,14.3683636 C10.62511,14.3733985 12.4630383,14.062788 14.141914,13.7412629 C15.1487635,13.5484393 16.1316188,13.3694817 16.5950615,13.2686873 C16.7056165,13.2446424 16.7644526,13.235546 16.7922715,13.2210953 C16.8127428,13.2104611 16.8193186,13.2153571 16.8085729,13.1967832 L10.6540342,14.3417307 Z M0.0568585014,15.2455452 C0.0701899606,14.5561411 0.0958445239,13.3805723 0.113868608,12.6331707 L0.146639713,11.2742579 L1.97067417,11.2780506 C2.97389307,11.2801345 3.81037361,11.2984073 3.82951972,11.318653 C3.84866584,11.3388992 3.87206696,12.4943917 3.88152228,13.8864154 L3.8987137,16.4173665 L3.77197251,16.4300755 C3.70226479,16.4370651 2.8323936,16.4554342 1.83892538,16.4708959 L0.0326194783,16.4990079 L0.0568585014,15.2455457 L0.0568585014,15.2455452 Z M4.09404428,13.9129555 C4.11285022,12.5974435 4.13711032,11.5066607 4.14795559,11.4889939 C4.15880092,11.4713265 4.31822322,11.464523 4.50222744,11.4738744 L4.83678051,11.4908765 L4.83693262,13.0964096 C4.83703403,13.9794526 4.85187008,15.0580131 4.86992079,15.493211 L4.90274011,16.2844793 L4.48128755,16.2946374 L4.05983495,16.304795 L4.09402754,13.9129555 L4.09404428,13.9129555 Z M12.3221246,10.6354562 C12.2808022,10.3339754 12.2809807,9.65687172 12.3223781,9.65687172 C12.3805105,9.65687172 12.5554163,9.88207606 12.6263064,10.0482008 C12.7607116,10.3631684 12.7050242,10.6375944 12.4762923,10.7874649 C12.3540647,10.8675517 12.3539121,10.8674011 12.3221206,10.6354562 L12.3221246,10.6354562 Z M11.106611,7.89090744 C10.9944918,7.76701724 11.0007492,7.61881994 11.1241045,7.47659003 L11.2255129,7.35966507 L11.2255129,7.67164868 C11.2255129,7.84323989 11.2176406,7.98363228 11.2080194,7.98363228 C11.1983978,7.98363228 11.152764,7.94190625 11.106611,7.89090744 Z M10.8635704,3.0332589 C10.8178824,3.02011656 10.6383443,2.77367141 10.4645966,2.48560296 C10.0391055,1.78015061 9.60127301,1.26904279 9.19734389,1.00626434 C8.63011065,0.637247561 8.59463189,0.560420569 8.9201231,0.405964851 C9.35859144,0.197897983 9.93966186,0.188658456 10.5590231,0.379904856 C11.1088694,0.549686586 11.3596438,0.512520338 11.7679837,0.200729814 C11.95099,0.0609941915 12.0474035,0.0230689014 12.2196346,0.0230689014 C12.7184684,0.0230689014 13.3186482,0.396589183 13.5923577,0.877379223 C13.7963125,1.23564093 13.9595035,1.39092698 14.2931185,1.54419566 C14.4604425,1.62106727 14.6624035,1.7531493 14.7419204,1.83771127 L14.8864969,1.99146032 L14.7672725,2.0682867 C14.7016993,2.11054122 14.4997383,2.19007475 14.3184706,2.24502789 C14.137203,2.29998098 13.7607242,2.41485657 13.4818509,2.50030688 C13.2029777,2.58575725 12.8379073,2.74165945 12.6705833,2.84675623 L12.366358,3.03784139 L11.6564988,3.04749766 C11.2660763,3.05280862 10.9092585,3.04640092 10.8635704,3.0332589 L10.8635704,3.0332589 Z" id="path2574"></path>
            </g>
        </g>
    </g>
</svg>