<?xml version="1.0" encoding="UTF-8"?>
<svg width="32px" height="32px" viewBox="0 0 32 32" version="1.1" xmlns="http://www.w3.org/2000/svg" xmlns:xlink="http://www.w3.org/1999/xlink">
    <!-- Generator: Sketch 63.1 (92452) - https://sketch.com -->
    <title>ic_card_3@3x</title>
    <desc>Created with Sketch.</desc>
    <g id="assets" stroke="none" stroke-width="1" fill="none" fill-rule="evenodd">
        <g id="Group-9">
            <circle id="Oval-Copy-2" fill="#FFFFFF" cx="16" cy="16" r="16"></circle>
            <g id="Shares-transparrent" opacity="0.699999988" transform="translate(7.000000, 8.000000)" fill="#1D9E89" fill-rule="nonzero">
                <path d="M14.4131901,16.2377839 C13.4491011,16.0853109 12.8284875,15.7833926 12.610285,15.3607005 C12.5491046,15.2421847 12.5206577,14.9918671 12.5635005,14.949024 C12.5738856,14.9386389 12.6625999,15.0093655 12.7606433,15.1061945 C13.1633328,15.5038954 14.0458779,15.7793345 14.9174767,15.7793345 C15.2099818,15.7793345 15.3432727,15.7634043 15.8360472,15.6695527 C16.2924651,15.5826254 16.773731,15.3588055 17.0572282,15.1016242 L17.2246186,14.9497725 L17.2351275,15.0895745 C17.2689333,15.5392989 16.6884867,15.9693305 15.7674758,16.1769045 C15.546024,16.2268145 14.6099098,16.2688958 14.4131901,16.2377839 L14.4131901,16.2377839 Z M8.3587296,16.1041975 C7.62038057,15.9795549 7.06541246,15.7090502 6.82189303,15.3551071 C6.73145657,15.2236622 6.7160472,15.1702193 6.7160472,14.988013 L6.7160472,14.7747603 L6.81695451,14.9140587 C7.03478023,15.2147585 7.50223886,15.4414965 8.25890434,15.6134681 C8.50138046,15.6685769 9.62662251,15.6718471 9.8360472,15.6180518 C9.92090434,15.5962543 10.0674758,15.5604809 10.1617615,15.5385552 C10.3255179,15.5004744 10.3659202,15.4868931 10.5817615,15.3973718 C10.9435111,15.2473347 11.2362549,14.9937377 11.3471633,14.8271829 C11.3531949,14.8096666 11.3993609,14.8126786 11.4108429,14.8207961 C11.4458105,14.8461449 11.4129926,15.1097458 11.3294846,15.2891085 C11.2673534,15.4225557 11.1944033,15.5057678 11.039713,15.6196443 C10.838699,15.7676225 10.4219503,15.9641229 10.1789043,16.0255224 C9.66805714,16.1545755 8.8632288,16.1893632 8.3587296,16.1041975 L8.3587296,16.1041975 Z M2.68747577,16.0997043 C1.87434583,16.0031558 1.21156457,15.6829272 0.959978743,15.2650488 C0.8820072,15.1355403 0.858911314,14.8536202 0.926272457,14.8536202 C0.947610857,14.8536202 1.03554789,14.9240986 1.12168834,15.0102387 C1.36407463,15.2526254 1.85982823,15.4716987 2.41319006,15.5809536 C2.70136354,15.6378501 3.58570423,15.6537665 3.88747577,15.607488 C4.2708624,15.5486931 4.5062136,15.486913 4.76176149,15.3779859 C5.1022824,15.2328398 5.20674343,15.1669762 5.38747577,14.9834702 L5.58461863,14.7833016 L5.58461863,14.9951057 C5.58461863,15.1800007 5.57091463,15.2247597 5.47675131,15.3474079 C5.2090224,15.6961279 4.68960823,15.9551424 4.02869897,16.0695038 C3.75232183,16.1173269 2.98197943,16.134673 2.68747577,16.0997043 Z M14.0007682,15.0073886 C13.6711365,14.9402379 13.4753811,14.8772307 13.2474758,14.7649282 C12.7876632,14.5383511 12.5446186,14.2525193 12.5446186,13.9383363 C12.5446186,13.8383139 12.5514593,13.7564774 12.5598206,13.7564774 C12.5681815,13.7564774 12.6530743,13.8390058 12.7484712,13.9398741 C12.9994999,14.2053 13.4250223,14.4056568 14.0111469,14.5344041 C14.3520778,14.6092923 15.4039533,14.6187315 15.7331901,14.5498567 C16.3631085,14.4180813 16.9761549,14.1150593 17.1259875,13.8614129 C17.2114965,13.7166579 17.2417615,13.7298466 17.2417615,13.9118643 C17.2417615,14.1180288 17.1727848,14.2729289 16.9978855,14.459533 C16.8647445,14.6015839 16.4651355,14.8368946 16.2474758,14.9014135 C15.7312481,15.0544341 15.4568098,15.0922107 14.8560473,15.0929458 C14.5021841,15.0841539 14.2495821,15.0584146 14.0007682,15.0073886 L14.0007682,15.0073886 Z M2.77319006,14.9885472 C2.141424,14.8931129 1.86788503,14.8165262 1.53603943,14.6421645 C0.951310286,14.3349305 0.739162971,13.9009101 0.984569143,13.5139443 C1.27580969,13.0708687 1.91203454,12.8760058 2.33601737,12.7717982 C2.52682971,12.7259002 2.73604663,12.7118561 3.2360472,12.7113634 C3.85757623,12.7107915 3.98343977,12.7242658 4.40176149,12.8361761 C5.00661531,12.9979879 5.5348944,13.3873694 5.59696011,13.7171277 C5.64080983,13.9501032 5.5880136,14.0931963 5.37365691,14.3223442 C5.1035184,14.6111235 4.67862171,14.8228457 4.17890434,14.9176793 C3.60187783,15.0271841 3.17232206,15.0488397 2.77319006,14.9885472 Z M8.55033291,14.9869426 C7.97725166,14.9038529 7.7199024,14.8279999 7.31831383,14.6238072 C7.12710891,14.526587 6.83625806,14.2657272 6.76411029,14.1267507 C6.7161648,14.0343946 6.69617383,13.7221917 6.73820606,13.7221917 C6.75039326,13.7221917 6.83161886,13.7888417 6.91870731,13.8703029 C7.23932434,14.1702024 7.58656114,14.3190799 8.29319006,14.4596119 C8.59319897,14.5192766 9.51556491,14.5292613 9.7608648,14.4754999 C9.84935794,14.4561051 9.99890434,14.4240953 10.0931901,14.4043673 C10.2618881,14.3690688 10.5259371,14.2777821 10.7617615,14.1732288 C11.0019501,14.0667408 11.2864526,13.827145 11.3380467,13.6879059 C11.368019,13.6070198 11.3711626,13.6101816 11.3938601,13.7440447 C11.4659739,14.1693466 11.0824515,14.5682496 10.3674758,14.8115904 C9.82215634,14.9971889 9.10098617,15.0667814 8.55033291,14.9869433 L8.55033291,14.9869426 Z M14.5331901,13.9383099 C14.2268945,13.9053638 13.7771122,13.8161582 13.5903329,13.7513129 C13.1270928,13.5904869 12.7406664,13.3206377 12.6117566,13.0679534 C12.5420757,12.9313677 12.5196041,12.6593345 12.5780019,12.6593345 C12.596363,12.6593345 12.6784536,12.7264025 12.7604256,12.8083745 C13.0419346,13.0898835 13.464888,13.2733491 14.1500914,13.4111739 C14.418528,13.4651685 15.3926688,13.4572947 15.6989043,13.3986552 C16.2998489,13.2835838 16.8021446,13.0598541 17.0700967,12.7879059 C17.1397721,12.7171917 17.2069001,12.6593345 17.2192704,12.6593345 C17.2654406,12.6593345 17.2396145,12.9449379 17.1825346,13.0655815 C17.0253881,13.397725 16.4920018,13.7147722 15.8531901,13.8557503 C15.4657978,13.9412431 14.8933306,13.977048 14.5331901,13.9383099 L14.5331901,13.9383099 Z M13.1017779,13.2579059 C13.1017779,13.2304059 13.0898681,13.2079059 13.0753115,13.2079059 C13.0607549,13.2079059 13.0321531,13.2304059 13.011752,13.2579059 C12.991351,13.2854059 13.0032608,13.3079059 13.0382184,13.3079059 C13.0731761,13.3079059 13.1017779,13.2854059 13.1017779,13.2579059 Z M8.48176149,13.8243429 C7.90345783,13.7496442 7.37234194,13.5504405 7.03367623,13.281215 C6.82552217,13.1157405 6.7160472,12.9255065 6.7160472,12.7292719 C6.7160472,12.5613432 6.77370069,12.5482968 6.89107474,12.6896654 C7.08492617,12.9231456 7.55915966,13.1645043 8.00176149,13.2549442 C8.82506949,13.4231763 9.41257371,13.4196933 10.1789043,13.2420367 C10.6648557,13.1293797 11.2595626,12.7701926 11.3307267,12.5463669 C11.3541243,12.4727774 11.355479,12.4725902 11.3815677,12.5393345 C11.4623976,12.7461267 11.3538583,13.0513608 11.1290493,13.2494664 C10.9762749,13.3840934 10.6078896,13.5844169 10.3503329,13.6729227 C9.92913531,13.8176616 9.00795017,13.8923102 8.48176149,13.8243429 L8.48176149,13.8243429 Z M14.3960472,12.775044 C13.6440813,12.7045728 12.8531835,12.3398359 12.631283,11.9611913 C12.5493665,11.8214115 12.5129091,11.5710442 12.5666462,11.5173069 C12.5787614,11.5051917 12.6757875,11.5759059 12.7822594,11.6744496 C13.1217597,11.9886699 13.4788375,12.1430366 14.1154639,12.250801 C15.1643143,12.4283441 16.2768195,12.2417009 16.9010609,11.7834658 C16.9937458,11.7154286 17.0962183,11.6146659 17.128777,11.5595482 C17.2123443,11.4180795 17.241876,11.4345631 17.2410271,11.6221917 C17.2401926,11.7985042 17.1556162,12.0148241 17.0407258,12.134449 C16.8074918,12.3772941 16.2844341,12.6208605 15.7705954,12.7258971 C15.5729997,12.7662888 14.6534527,12.7991671 14.3960472,12.775044 L14.3960472,12.775044 Z M8.80747577,12.7188771 C7.82616,12.6537394 7.08288789,12.3503815 6.79769623,11.8986089 C6.70202606,11.7470578 6.68569714,11.4460481 6.76484331,11.2929963 C6.99622594,10.8750905 7.29902434,10.7879883 7.64247703,10.6605093 C8.1706008,10.4667799 8.58266811,10.3964774 9.08104869,10.3964774 C9.51200229,10.3964774 10.0990262,10.5006045 10.4360472,10.6368285 C10.6072149,10.7406209 10.9089446,10.8773794 10.9500895,10.9163897 C11.012172,10.9792951 11.2242864,11.151348 11.2461946,11.1702051 C11.3373878,11.2486985 11.4112989,11.517168 11.4118913,11.5964774 C11.4129418,11.7390905 11.2595582,12.0216151 11.1129473,12.1471087 C10.6459159,12.5468702 9.71062766,12.7788261 8.80747577,12.7188771 L8.80747577,12.7188771 Z M14.1046186,11.581537 C13.7494457,11.5084135 13.4967669,11.4247104 13.2100591,11.2852022 C12.7584072,11.0654349 12.5439991,10.7985727 12.5453178,10.4578433 L12.5460302,10.2764774 L12.6910395,10.4360798 C13.0784386,10.8624655 13.7449433,11.1156288 14.6189057,11.1683551 C15.6846274,11.2326501 16.7510376,10.9132087 17.1060195,10.4233443 C17.1568035,10.3532643 17.208121,10.3056929 17.2200586,10.3176302 C17.2598626,10.3574345 17.2424061,10.6371405 17.1926918,10.7561232 C17.0514936,11.0940586 16.4680711,11.4313865 15.7748033,11.5759303 C15.481739,11.6370329 14.3919429,11.6406915 14.10462,11.581537 L14.1046186,11.581537 Z M14.4646186,10.4996482 C13.7044961,10.4183582 13.154641,10.2186024 12.8246465,9.90386674 C12.5276253,9.62057966 12.4656566,9.33385783 12.6417175,9.05747554 C12.9788033,8.52831531 13.8412646,8.20438423 14.9172168,8.20281776 C15.1567173,8.20247726 15.4344315,8.21772789 15.5343597,8.23671634 C15.873983,8.30125234 16.0588128,8.34809691 16.0987893,8.37976903 C16.1207263,8.39714914 16.1813143,8.41910091 16.2334296,8.42855143 C16.5516285,8.48625189 17.012111,8.80095634 17.1505659,9.05534366 C17.4726768,9.64716754 16.8944506,10.213643 15.7160472,10.4607096 C15.477515,10.5107208 14.7731047,10.532639 14.4646186,10.4996482 L14.4646186,10.4996482 Z M0.21255156,10.1405805 C0.06302196,10.0755456 -0.0162712985,9.91236069 0.00593350286,9.71536183 C0.0250258457,9.54597394 0.0483319029,9.51996651 0.732080914,8.9050488 C0.899824457,8.75419166 1.06939234,8.59990594 1.10889874,8.56219166 C1.14840514,8.52447737 1.30374686,8.38639749 1.45410206,8.25534754 C1.6044576,8.1242976 1.82776149,7.92343166 1.95033291,7.80897874 C2.15246503,7.62023451 2.57689269,7.23881863 2.75981143,7.0815336 C2.79959623,7.047324 2.97180309,6.89148549 3.14249314,6.7352256 C3.64757006,6.27284914 3.53928274,6.30499337 4.0760472,6.45810891 C4.58082994,6.60210171 4.86873806,6.68586926 5.00176149,6.72744754 C5.04890434,6.74218286 5.15690434,6.7732464 5.24176149,6.79647737 C5.32661863,6.81970834 5.43461863,6.8504904 5.48176149,6.86488183 C5.87405074,6.98463566 6.13018251,7.05941554 6.66461863,7.21022674 C7.0040472,7.30600903 7.3280472,7.3978008 7.38461863,7.41420823 C7.44119006,7.43061531 7.54147577,7.4589576 7.60747577,7.47719109 C7.67347577,7.49542423 7.85861863,7.5499704 8.01890434,7.5984048 C8.17919006,7.6468392 8.32955246,7.68679097 8.35304263,7.68718663 C8.37653314,7.68758091 8.54136891,7.56833451 8.71934434,7.42219166 C8.89731943,7.2760488 9.22328229,7.00990594 9.44370617,6.83076309 C9.66412971,6.65162023 9.86186537,6.48897806 9.88311874,6.46933577 C9.90437246,6.44969383 10.0760472,6.31094366 10.2646186,6.16100229 C10.4531901,6.01106091 10.6151901,5.8801776 10.6246186,5.87015074 C10.648655,5.84458937 11.2917747,5.32075063 11.7217615,4.97649771 C12.057396,4.7077848 12.2257944,4.56767314 12.3179681,4.48043931 C12.3389115,4.46061806 12.5489043,4.29201189 12.7846186,4.10575886 C13.0203329,3.91950583 13.2209043,3.75781131 13.2303329,3.7464384 C13.2448869,3.72888274 13.3693495,3.6264432 13.8633089,3.22546454 C13.9017435,3.19426467 14.1121989,3.02455039 14.3309877,2.84832168 C14.8341771,2.44301517 15.6420603,1.78209634 15.6646186,1.75729543 C15.6740472,1.74692949 15.7873245,1.6538015 15.9163461,1.55034432 L16.1509303,1.36224034 L16.0020603,1.33648605 C15.9201816,1.32232118 15.5909043,1.29546651 15.2703329,1.27680905 C14.5997808,1.23778248 13.9136921,1.18534968 13.6438454,1.15250846 L13.4573578,1.12981231 L13.5581311,1.04449022 C13.6604064,0.957896434 14.1981977,0.466985246 14.5142133,0.171751539 C14.7073265,-0.008662632 14.6907271,-0.005657832 15.2189043,0.044192568 C15.4169043,0.0628803394 15.8180472,0.092850168 16.1103329,0.110792225 C17.3451963,0.186594854 17.7454155,0.215247082 17.8552985,0.235717368 L17.971693,0.257400339 L17.9499319,0.706938857 C17.9379634,0.954185006 17.9048897,1.68792096 17.8764343,2.33746323 L17.8246978,3.51844937 L17.7132295,3.62317749 C17.6519222,3.68077817 17.4860472,3.82608171 17.3446186,3.94607486 C17.2031901,4.06606766 17.0720472,4.18185017 17.0531901,4.2033696 C17.0343329,4.22488903 16.9179453,4.33023051 16.794551,4.43746183 L16.5701979,4.63242789 L16.5799073,4.30016674 C16.5852477,4.1174232 16.6070733,3.58990594 16.6284086,3.12790587 C16.6497439,2.66590587 16.6614765,2.24255434 16.6544808,2.18712466 C16.6433043,2.09856789 16.6355235,2.09232977 16.5903329,2.13569609 C16.5620472,2.16284006 16.4823826,2.22724385 16.4133007,2.27881567 C16.3442187,2.33038749 16.2670759,2.39238734 16.2418721,2.41659309 C16.2166683,2.44079883 16.0726186,2.56060371 15.9217615,2.68282611 C15.7709043,2.80504855 15.6397615,2.91348271 15.6303329,2.92379091 C15.6209043,2.93409909 15.5129112,3.01895623 15.3903483,3.11236234 C15.2677855,3.20576842 15.143388,3.30533445 15.1139095,3.33362016 C15.0481197,3.39674777 14.9195955,3.50236731 14.1560472,4.12077874 C13.5210051,4.6351104 13.2757817,4.83692777 13.2156874,4.89468994 C13.1954568,4.91413577 13.0786186,5.00646 12.9560472,5.09985566 C12.8334758,5.19325097 12.6946186,5.30259669 12.6474758,5.3428464 C12.3909137,5.56189269 11.890223,5.97334594 11.7560472,6.07539634 C11.6711901,6.13993646 11.4710187,6.30158263 11.3112219,6.43460983 C11.1514251,6.56763703 10.9908634,6.69962023 10.9544181,6.72790594 C10.9179727,6.75619166 10.8327154,6.82649143 10.7649576,6.88412777 C10.6971998,6.94176411 10.5935829,7.02662126 10.5346982,7.0726992 C10.3368422,7.2275232 9.54584126,7.87033611 9.4221864,7.97679017 C9.25723097,8.11879954 9.15466903,8.20208709 9.0125136,8.30947337 C8.9468856,8.35904949 8.83919006,8.44792834 8.77319006,8.50698137 C8.62558629,8.63904891 8.52062537,8.66939314 8.38229966,8.61998777 C8.32386103,8.59911531 8.19119006,8.55922423 8.08747577,8.53134069 C7.98376149,8.50345749 7.79090434,8.44796126 7.65890434,8.408016 C7.42958914,8.33862171 7.07613394,8.23634434 6.81890434,8.16494983 C6.75290434,8.14663131 6.67576149,8.12481874 6.64747577,8.11647737 C6.61919006,8.108136 6.53819006,8.08543783 6.46747577,8.06603726 C6.39676149,8.04663634 6.28490434,8.01533451 6.21890434,7.99647737 C6.15290434,7.97762023 6.0410472,7.94589326 5.97033291,7.92597291 C5.89961863,7.90605223 5.79161863,7.87519509 5.73033291,7.85740149 C5.44845566,7.77556011 5.3810592,7.75613109 5.1560472,7.69184709 C5.0240472,7.65413554 4.8080472,7.59026331 4.6760472,7.54990869 C4.5440472,7.50955406 4.3820472,7.46151051 4.3160472,7.44314537 C4.2500472,7.42477989 4.1420472,7.39412194 4.0760472,7.37501589 C3.81684171,7.29998023 3.80956011,7.30050446 3.70822594,7.40149509 C3.65423143,7.45530686 3.41152149,7.67676309 3.16887086,7.89362023 C2.92622023,8.11047737 2.63378331,8.37408206 2.51901051,8.47940846 C2.40423771,8.58473486 2.24090434,8.731284 2.1560472,8.80507269 C2.07119006,8.87886171 1.91690434,9.01823897 1.81319006,9.11479954 C1.70947577,9.21136046 1.56290434,9.34236857 1.48747577,9.40592846 C1.36200651,9.51165531 1.21231166,9.64818583 0.8360472,10.0000683 C0.623348914,10.1989834 0.441210171,10.240031 0.21255156,10.1405805 L0.21255156,10.1405805 Z" id="path4312"></path>
            </g>
        </g>
    </g>
</svg>