<?xml version="1.0" encoding="UTF-8"?>
<svg width="32px" height="30px" viewBox="0 0 32 30" version="1.1" xmlns="http://www.w3.org/2000/svg" xmlns:xlink="http://www.w3.org/1999/xlink">
    <!-- Generator: Sketch 63.1 (92452) - https://sketch.com -->
    <title>ic_detail_2@3x</title>
    <desc>Created with Sketch.</desc>
    <g id="assets" stroke="none" stroke-width="1" fill="none" fill-rule="evenodd" opacity="0.699999988">
        <g id="Group-2" fill="#1D9E89" fill-rule="nonzero">
            <g id="Utbytte-Transparrent">
                <path d="M17.3874533,29.5508741 C15.3443128,29.2723272 12.5057632,28.7370204 10.7621012,28.3014346 C10.2911153,28.1837774 9.6867209,28.0719721 9.41900169,28.0529794 L8.93224113,28.0184464 L8.95052259,24.4184608 C8.96875448,20.8282997 8.9693449,20.8180525 9.16686152,20.6633483 C9.82494017,20.1479094 11.2107637,19.5992663 12.3294359,19.4112965 C13.0267817,19.2941215 15.3669219,19.3555543 21.2274686,19.6448838 C23.8589828,19.7747993 24.0530037,19.8182121 24.3770177,20.3496131 C24.7646179,20.9852971 24.4824023,21.8138555 23.8070382,22.0230202 C23.647534,22.0724192 22.4218195,22.1795705 21.0832279,22.2611335 C18.8060223,22.3998873 17.7916719,22.5138912 16.6437913,22.7600847 C16.1931944,22.8567274 16.1706465,22.8752433 16.1725314,23.147072 C16.1770565,23.7995872 16.8485426,24.6755948 17.6903941,25.0937627 C18.9101043,25.6996228 18.2723425,25.3179908 17.7480167,25.0273568 C16.920823,24.5688428 16.2606927,23.7119513 16.2606927,23.0967148 C16.2606927,22.9186668 17.8439337,22.6113947 19.171237,22.5318427 L20.1437521,22.4735549 L20.45888,22.7502414 C20.9080293,23.1445985 21.3232523,23.1321645 21.7190445,22.712503 C22.0032334,22.4111739 22.0487301,22.3958193 22.8113785,22.3438459 C23.8427673,22.2735567 24.1256663,22.1810353 24.4545577,21.8064496 C24.9429445,21.2502075 24.9090587,20.5368762 24.3673212,19.9700002 L24.0987286,19.6889438 L24.2445179,19.126949 C24.6152194,17.6979543 23.8177514,16.1135081 22.3443741,15.3516548 L21.7599513,15.0494621 L21.7636291,13.8776311 C21.7671626,12.7515123 21.7733066,12.7139254 21.921042,12.9140967 C22.328649,13.466377 22.452242,13.5707078 22.75083,13.6145614 C23.1991346,13.6804047 23.6238008,13.3997584 23.7013472,12.9863977 C23.84117,12.241079 23.108489,11.2787047 22.1779092,10.9853647 L21.6691434,10.8249897 L21.6691434,10.2724002 C21.6691434,9.78462918 21.639488,9.69139921 21.4163236,9.47759414 C21.0669323,9.14285611 20.5586785,9.14285611 20.2092872,9.47759414 C19.975634,9.70144811 19.9564674,9.7718418 19.9564674,10.4061115 L19.9564674,11.0924115 L19.5454044,11.2921212 C18.5577528,11.7719599 17.7957012,12.8158981 17.7939678,13.6914254 C17.7922731,14.547273 18.4955574,15.5006215 19.5269823,16.0406418 L20.0219863,16.2998094 L20.0793681,17.1082015 C20.162962,18.2858817 20.1496834,19.2410114 20.0497163,19.2410114 C19.8899975,19.2410114 19.4228372,18.7157435 19.3738384,18.4810646 C19.3472415,18.3536829 19.3035502,18.1445607 19.276745,18.016347 C19.1434808,17.3789152 18.3308214,17.1267696 17.8215383,17.5648361 C17.6104473,17.7464086 17.5693692,17.8525521 17.5686247,18.2183572 C17.568174,18.4585636 17.599607,18.7693422 17.6385623,18.9089758 L17.7093895,19.1628557 L16.2864496,19.0892575 C13.2561523,18.9325224 11.8854725,19.0095035 10.887451,19.3924795 C10.756434,19.4427556 10.7446914,19.4039815 10.7982116,19.0978055 C10.9011804,18.5087459 11.2946957,17.2700926 11.7263874,16.1762226 C13.2921375,12.2087446 16.1266497,8.20484868 18.5499673,6.5375625 C18.8564705,6.32668259 19.0558368,6.25923389 19.3867935,6.2544512 L19.8212561,6.24817289 L19.3930871,6.11651236 C19.122871,6.03342188 18.9649181,5.93326549 18.9649181,5.84501454 C18.9649181,5.73439811 19.0355534,5.7158976 19.3029463,5.75648018 C20.2855689,5.90561415 21.016832,5.91329064 21.5790026,5.78037336 C22.4098921,5.58392131 22.5877138,5.85132331 21.8229165,6.14716322 C21.5453395,6.25453611 21.5517242,6.25700417 21.9846364,6.20968699 C22.385838,6.16583581 22.4848433,6.19296361 22.8860448,6.45667416 C23.490843,6.85420944 24.9792153,8.30054851 25.6991225,9.19030715 C28.312238,12.41995 30.5807675,17.2355885 30.8159306,20.052279 C30.91915,21.2885895 30.5554416,22.7968892 30.0420705,23.2614833 C29.7697731,23.5079103 29.8351513,23.5644259 30.3937055,23.5677719 C31.0101228,23.5714677 31.6595182,23.8528802 31.8308886,24.1987579 C31.97781,24.4952906 31.9789368,25.4117859 31.8325201,25.5283948 C31.6779863,25.6514713 26.1567775,27.629952 23.0212525,28.6858411 L20.452242,29.550958 L19.0550589,29.5693494 C18.2866082,29.579465 17.5361857,29.5711522 17.3874533,29.5508741 L17.3874533,29.5508741 Z M18.9405052,25.4964101 C18.8301296,25.5018276 18.4706082,25.4096451 18.3937073,25.4143919 C18.3164034,25.4191603 18.7111383,25.5288933 18.8221954,25.5437575 C18.8890844,25.5527085 22.1565125,25.000512 25.1411804,24.4289118 C26.9311351,24.0861143 28.6784334,23.7679675 29.5023315,23.5887775 C29.6988737,23.5460309 29.8034713,23.5298596 29.8529271,23.5041695 C29.8893206,23.4852642 29.9010109,23.4939682 29.8819074,23.4609478 L18.9405052,25.4964101 Z M0.10108178,27.1031914 C0.124782152,25.8775842 0.170390265,23.7876841 0.202433082,22.4589701 L0.260692823,20.0431252 L3.50342075,20.0498677 C5.28692101,20.0535725 6.77399752,20.0860575 6.80803506,20.1220498 C6.84207261,20.158043 6.88367459,22.2122519 6.90048406,24.6869607 L6.93104658,29.1864293 L6.7057289,29.2090231 C6.58180408,29.221449 5.0353664,29.2541052 3.26920068,29.2815928 L0.0579901837,29.3315696 L0.10108178,27.1031923 L0.10108178,27.1031914 Z M7.27830094,24.7341431 C7.31173372,22.3954551 7.35486278,20.4562857 7.37414328,20.424878 C7.39342386,20.3934693 7.67684128,20.3813742 8.00395989,20.3979989 L8.5987209,20.4282249 L8.59899132,23.2825059 C8.59917161,24.8523601 8.62554682,26.769801 8.65763696,27.5434862 L8.71598242,28.9501855 L7.96673343,28.9682443 L7.21748435,28.9863022 L7.27827119,24.7341431 L7.27830094,24.7341431 Z M21.9059993,18.9074776 C21.8325372,18.3715119 21.8328545,17.1677719 21.90645,17.1677719 C22.0097965,17.1677719 22.3207401,17.5681352 22.4467669,17.8634682 C22.6857095,18.4234105 22.5867096,18.9112789 22.1800753,19.1777154 C21.9627817,19.3200919 21.9625104,19.3198242 21.9059921,18.9074776 L21.9059993,18.9074776 Z M19.7450862,14.0282799 C19.5457632,13.8080306 19.5568874,13.5445688 19.7761857,13.2917156 L19.9564674,13.083849 L19.9564674,13.6384865 C19.9564674,13.9435376 19.9424721,14.1931241 19.9253679,14.1931241 C19.9082628,14.1931241 19.827136,14.1189445 19.7450862,14.0282799 Z M19.3130141,5.39246026 C19.2317909,5.36909611 18.9126121,4.9309714 18.6037273,4.41884971 C17.8472987,3.1647122 17.0689298,2.25607608 16.3508336,1.78891439 C15.3424189,1.13288455 15.2793456,0.996303234 15.8579966,0.72171529 C16.6374959,0.351818637 17.67051,0.335392811 18.7715966,0.675386411 C19.7491011,0.977220597 20.1949224,0.911147268 20.9208599,0.356853003 C21.2462044,0.108434118 21.4176063,0.0410113803 21.7237949,0.0410113803 C22.6106105,0.0410113803 23.6775968,0.705047437 24.1641915,1.55978528 C24.5267777,2.19669499 24.8168951,2.47275908 25.4099885,2.74523673 C25.7074533,2.88189737 26.0664951,3.11670986 26.2078585,3.26704225 L26.4648834,3.5403739 L26.2529289,3.67695414 C26.1363543,3.75207328 25.7773125,3.89346623 25.4550589,3.9911607 C25.1328054,4.08885508 24.4635096,4.29307835 23.967735,4.44499002 C23.4719603,4.59690177 22.8229463,4.87406125 22.5254815,5.06089997 L21.9846364,5.40060692 L20.7226646,5.41777361 C20.0285801,5.42721532 19.3942373,5.41582386 19.3130141,5.39246026 L19.3130141,5.39246026 Z" id="path2574"></path>
            </g>
        </g>
    </g>
</svg>