<?xml version="1.0" encoding="UTF-8"?>
<svg width="24px" height="24px" viewBox="0 0 24 24" version="1.1" xmlns="http://www.w3.org/2000/svg" xmlns:xlink="http://www.w3.org/1999/xlink">
    <!-- Generator: Sketch 63.1 (92452) - https://sketch.com -->
    <title>ic_inbox@3x</title>
    <desc>Created with Sketch.</desc>
    <g id="assets" stroke="none" stroke-width="1" fill="none" fill-rule="evenodd">
        <g id="Group-7" transform="translate(2.000000, 2.000000)" fill-rule="nonzero">
            <path d="M17.8673561,-1.38555833e-13 L2.13269131,-1.38555833e-13 C0.956393572,-1.38555833e-13 0,0.956867503 0,2.13269131 L0,13.5071398 C0,14.6834375 0.956393572,15.6398311 2.13269131,15.6398311 C3.6251013,15.6398311 3.82557429,15.6398311 3.82557429,15.6398311 L4.26538263,15.6398311 L4.26538263,19.194364 C4.26538263,19.8284842 5.03409936,20.1417529 5.47864702,19.6972052 C7.46347174,17.7119066 6.06963948,19.1062128 9.32749134,15.8483609 C9.46113999,15.7147123 9.64123393,15.6398311 9.83033256,15.6398311 L17.8673087,15.6398311 C19.0431325,15.6398311 20,14.6834375 20,13.5071398 C20,6.86920915 20,8.78673561 20,2.13269131 C20,0.956867503 19.0431799,-1.38555833e-13 17.8673561,-1.38555833e-13 Z" id="Path" stroke="#1D9E89" stroke-width="1.5"></path>
            <path d="M3.55453292,4.26538263 L13.6019735,4.26538263 C13.9948626,4.26538263 14.3128706,4.5833906 14.3128706,4.97627973 C14.3128706,5.36916887 13.9948626,5.68717684 13.6019735,5.68717684 L3.55453292,5.68717684 C3.16164378,5.68717684 2.84363581,5.36916887 2.84363581,4.97627973 C2.84363581,4.5833906 3.16164378,4.26538263 3.55453292,4.26538263 Z" id="Path" fill="#1D9E89"></path>
            <path d="M10.7583376,11.3744485 L3.55453292,11.3744485 C3.16164378,11.3744485 2.84363581,11.0564405 2.84363581,10.6635514 C2.84363581,10.2706622 3.16164378,9.95265425 3.55453292,9.95265425 L10.7583376,9.95265425 C11.1512268,9.95265425 11.4692347,10.2706622 11.4692347,10.6635514 C11.4692347,11.0564405 11.1512268,11.3744485 10.7583376,11.3744485 Z" id="Path" fill="#1D9E89"></path>
            <path d="M16.4455619,8.53081265 L3.55453292,8.53081265 C3.16164378,8.53081265 2.84363581,8.21280468 2.84363581,7.81991555 C2.84363581,7.42702641 3.16164378,7.10901844 3.55453292,7.10901844 L16.4455619,7.10901844 C16.838451,7.10901844 17.156459,7.42702641 17.156459,7.81991555 C17.156459,8.21280468 16.838451,8.53081265 16.4455619,8.53081265 Z" id="Path" fill="#1D9E89"></path>
        </g>
    </g>
</svg>