<?xml version="1.0" encoding="UTF-8"?>
<svg width="24px" height="24px" viewBox="0 0 24 24" version="1.1" xmlns="http://www.w3.org/2000/svg" xmlns:xlink="http://www.w3.org/1999/xlink">
    <!-- Generator: Sketch 63.1 (92452) - https://sketch.com -->
    <title>ic_invest@3x</title>
    <desc>Created with Sketch.</desc>
    <g id="assets" stroke="none" stroke-width="1" fill="none" fill-rule="evenodd">
        <g id="Invest-Icon" transform="translate(1.000000, 1.000000)" fill="#1D9E89" fill-rule="nonzero">
            <path d="M7.25945704,21.467597 C3.50399031,20.1735362 0.641340065,17.5223815 0.174675242,13.2813959 C-0.053946911,11.2037107 -0.0991212066,11.0839361 0.290657948,8.50432489 C0.931943285,4.26021008 3.45629001,2.01063993 7.1333335,0.590291054 C9.36074388,-0.270100569 12.6555741,-0.20795323 15.2200637,0.895508201 C17.0880243,1.69926358 17.7119219,2.14173388 19.147169,3.40555276 C19.9522366,4.11446189 20.4985896,5.17400997 20.7718648,5.64159213 C21.1949994,6.36558832 21.2549406,6.4797691 21.5791423,7.81839066 C22.0032642,9.56958258 21.9969183,10.146885 21.9998622,10.9648621 C22.0024408,11.7594933 21.9729438,12.6176191 21.5547821,14.0154195 C20.5225652,17.465817 18.8100836,19.6045411 15.9508759,21.0141542 C14.1137698,21.9198626 12.7243616,21.9742145 11.3408455,21.9937287 C9.45440454,22.0203373 8.7546392,21.9828075 7.25945704,21.467597 Z M15.2944568,19.4639892 C17.097975,18.7229782 19.2495478,16.2300363 19.93485,14.4058245 C20.3902078,13.1937036 20.625269,12.0412982 20.6452429,10.9371143 C20.6834591,8.82450238 19.9343199,6.8884142 18.4343159,5.04835603 C17.0657925,3.36958549 13.1709594,1.30103337 10.0091986,1.71149658 C7.14722291,2.08304147 5.07558706,2.84237529 3.38869554,5.32646921 C2.29128646,6.94249971 1.73551624,8.19002397 1.65254887,11.1572972 C1.56969244,14.1206106 2.2629942,15.0165915 3.19991637,16.5259424 C3.87883088,17.6196506 5.64033115,19.2762983 7.90920068,19.9322342 C10.0160318,20.5413242 13.312913,20.2781464 15.2944568,19.4639892 L15.2944568,19.4639892 Z M6.25272603,15.0796627 C5.53873679,14.5408348 5.53975867,14.5270153 6.41984601,12.8195069 C7.78155295,10.1775787 8.09292784,9.96338408 9.30076979,10.8377136 C10.8448252,11.9554207 11.3506981,11.7678998 12.5730153,9.6247364 C12.9014044,9.04895057 12.9384593,8.89728307 12.2531861,8.65333832 C11.379802,8.34242936 10.4442095,8.70478167 10.5746564,8.07004143 C10.7369262,7.28045822 15.2966662,5.81985976 15.5501553,6.13976011 C15.9317806,6.62136669 16.85799,9.86279552 16.7021531,10.2756379 C16.4188246,11.0262303 16.0667856,10.6498862 15.6914628,10.204065 C15.421925,9.88389936 14.8864192,9.74593744 14.7421113,9.74593744 C14.5978034,9.74593744 13.8618913,10.7318436 13.1067512,11.9368405 C12.3516111,13.1418369 11.501387,13.6947178 11.501387,13.6947178 C11.501387,13.6947178 10.8915337,13.8401873 10.1657401,13.4887301 C8.89593605,12.8738412 8.83106382,12.8754757 8.44739813,13.5320237 C7.3401136,15.4268659 7.01582158,15.6555494 6.25272603,15.0796627 L6.25272603,15.0796627 Z" id="path8369"></path>
        </g>
    </g>
</svg>