<?xml version="1.0" encoding="UTF-8"?>
<svg width="82px" height="84px" viewBox="0 0 82 84" version="1.1" xmlns="http://www.w3.org/2000/svg" xmlns:xlink="http://www.w3.org/1999/xlink">
    <!-- Generator: Sketch 63.1 (92452) - https://sketch.com -->
    <title>logo_login@3x</title>
    <desc>Created with Sketch.</desc>
    <g id="assets" stroke="none" stroke-width="1" fill="none" fill-rule="evenodd">
        <g id="Group-3" transform="translate(0.000000, 0.000000)" fill="#009080" fill-rule="nonzero">
            <path d="M37.1497359,83.8446446 C30.0117958,82.8526384 23.3916614,79.1232699 19.3415581,73.8126356 C18.1090855,72.1965761 17.730438,71.2810922 17.7254816,69.905394 C17.7166234,67.4219078 19.517618,65.5407112 21.9041132,65.5407112 C23.57553,65.5407112 24.4209832,66.0309553 25.741766,67.7660075 C28.353816,71.1973367 31.6707523,73.3567296 36.1348004,74.532079 C37.5783003,74.9121398 38.2196744,74.9696366 40.8859521,74.9580252 C43.606607,74.9461744 44.1859914,74.8863424 45.8231038,74.4481951 C50.1076033,73.3015095 52.9284816,71.3745735 56.3572014,67.252377 C57.3929331,66.0071603 58.3004582,65.5407112 59.6874176,65.5407112 C61.694548,65.5407112 63.2169743,66.7150565 63.8045119,68.716495 C64.4359149,70.8673763 63.419559,72.911898 60.0408928,76.287441 C56.3682349,79.9567089 51.8756567,82.3399828 46.4495161,83.497556 C44.45733,83.9225564 39.1386621,84.1210604 37.1497359,83.8446446 L37.1497359,83.8446446 Z" id="path2570-path"></path>
            <path d="M2.42249615,82.4218526 C1.34718335,81.8860033 0.471501836,80.8586898 0.149174961,79.754889 C0.0164242797,79.3002907 -0.02657665,72.8006347 0.0155871337,59.5627653 L0.077764777,40.0410361 L0.593216085,38.2663334 C1.21714726,36.1181375 2.47516045,33.4997097 3.56236785,32.0863516 C5.1266775,30.05277 29.2629775,4.16988112 30.3551593,3.35474382 C31.8283868,2.25521625 34.4816309,0.992136053 36.3090873,0.520368701 C38.2347348,0.0232534581 41.4861922,-0.148986109 43.4697359,0.141043512 C46.3147975,0.557047836 48.9688513,1.66173605 51.2490874,3.37901171 C51.9840129,3.93249128 54.3593415,6.3123209 56.6984289,8.83867441 C58.9790193,11.3018508 60.9306669,13.3457479 61.0354269,13.380664 C61.1592066,13.4219375 61.2461728,12.1699957 61.2838152,9.80494166 L61.3417266,6.16572695 L61.9104546,5.35635744 C62.2232576,4.91120479 62.8537441,4.33681993 63.3115356,4.07995506 C64.127572,3.6220876 64.2226295,3.61292804 68.1603212,3.61292804 L72.1767536,3.61292804 L73.0682848,4.1369849 C73.558634,4.42521647 74.1891205,5.0074649 74.4693659,5.43087744 L74.9789157,6.20071312 L75.0298801,17.4664908 L75.0808444,28.7322744 L76.4371726,30.183415 C78.1508874,32.0169105 78.8284677,33.0055542 79.8415661,35.1506677 C80.9000946,37.3919713 81.3898133,39.3251129 81.624652,42.1893605 C81.7430492,43.6334839 81.794749,51.1536407 81.7601307,61.8979004 C81.7048463,79.0625389 81.6994639,79.2814345 81.3140615,80.1140503 C80.4907454,81.892746 78.937466,82.9059145 77.0338814,82.9059145 C75.5957125,82.9059145 74.6155395,82.4607268 73.6575854,81.3724371 C72.2009281,79.7175852 72.2702057,80.7751387 72.2702057,60.1927322 C72.2702057,40.0090331 72.3122381,40.7800889 71.0932742,38.5966967 C70.3904394,37.3377786 46.508703,11.4610253 45.2872218,10.634872 C44.1646646,9.8756262 43.1445672,9.53150901 41.6021042,9.39173366 C39.0418883,9.15973214 36.9476084,9.88592414 35.2050762,11.6099077 C33.4264447,13.3696072 11.285705,37.3731968 10.8457509,38.0187449 C10.6088497,38.3663531 10.1885254,39.2157644 9.9116969,39.9063339 L9.40832466,41.161901 L9.31491925,60.3100085 C9.21177984,81.4535597 9.29982844,80.0123259 8.02240327,81.4672319 C6.69264773,82.9817363 4.34808361,83.381418 2.42249031,82.4218526 L2.42249615,82.4218526 Z" id="path2570-path"></path>
            <path d="M23.5715678,55.3920155 C22.3282094,54.9336051 21.3418967,54.0423313 20.7358638,52.8295497 C20.1565057,51.6701551 20.1499521,51.6253555 20.1499521,48.8245886 C20.1499521,45.5901462 20.3487112,44.7340681 21.3791731,43.5302067 C21.7358527,43.1135077 22.5088905,42.5362623 23.0970328,42.2474528 C24.124909,41.7427017 24.2750693,41.7223334 26.9685467,41.7223334 C29.6620241,41.7223334 29.8121844,41.7427075 30.8400607,42.2474528 C32.0952051,42.8638 33.09041,43.9473436 33.4967848,45.1399905 C33.8372475,46.139189 33.9043762,50.82009 33.5942574,51.9366465 C33.2301462,53.2476031 32.2960116,54.3675923 31.0153604,55.0286392 L29.8314708,55.6397383 L26.998928,55.6255523 C25.3298855,55.6172042 23.9220564,55.5212593 23.5715678,55.3920388 L23.5715678,55.3920155 Z" id="path2570-path"></path>
            <path d="M50.3198963,55.1992092 C49.1691826,54.6609839 48.2501201,53.7574214 47.7277387,52.6507659 C47.371724,51.8965464 47.3309233,51.4836128 47.3309233,48.6343334 C47.3309233,45.7186895 47.3646077,45.3955594 47.7423216,44.6895488 C48.4053774,43.4501291 49.0528345,42.8032325 50.188364,42.245608 C51.213751,41.742077 51.3596736,41.7225378 54.0561125,41.7276692 C56.582145,41.7323395 56.9544998,41.7760065 57.8347447,42.1691557 C59.0123534,42.6951449 60.1391728,43.8666997 60.5815233,45.0249793 C60.8552537,45.7417257 60.8969884,46.378336 60.8441385,49.0304541 C60.7833782,52.0793174 60.7642943,52.2126712 60.267757,53.0573421 C59.9853049,53.5378195 59.4435945,54.1869754 59.0639482,54.4999127 C57.9245132,55.4391326 57.0266379,55.6399601 53.9761341,55.6379322 C51.5155614,55.6361655 51.1641878,55.5940747 50.3198963,55.1992092 L50.3198963,55.1992092 Z" id="path2570-path"></path>
        </g>
    </g>
</svg>