<?xml version="1.0" encoding="UTF-8"?>
<svg width="271px" height="158px" viewBox="0 0 271 158" version="1.1" xmlns="http://www.w3.org/2000/svg" xmlns:xlink="http://www.w3.org/1999/xlink">
    <!-- Generator: Sketch 63.1 (92452) - https://sketch.com -->
    <title>logo@3x</title>
    <desc>Created with Sketch.</desc>
    <g id="assets" stroke="none" stroke-width="1" fill="none" fill-rule="evenodd">
        <g id="Group-4" fill="#FFFFFF" fill-rule="nonzero">
            <path d="M96.8943334,157.826773 C93.8829463,157.364466 91.1922577,156.106746 89.7797312,154.501165 C88.8685647,153.465473 88.1166579,151.761292 87.9074655,150.257758 L87.8387921,149.764128 L91.8117128,149.764128 C95.562603,149.764128 95.7846371,149.775851 95.7846371,149.973619 C95.7846371,150.088839 95.9186183,150.450452 96.0823752,150.777203 C96.6079514,151.825936 97.5626516,152.334935 99.4275582,152.560706 C101.867079,152.856046 103.996995,152.311988 105.193471,151.087886 C106.305295,149.950382 106.724468,148.381203 106.842432,144.914931 C106.887323,143.596048 106.875029,142.681364 106.812463,142.684656 C106.754116,142.68756 106.522412,142.980392 106.297553,143.335022 C105.712403,144.257887 104.459056,145.389971 103.479391,145.880524 C102.017045,146.612778 101.143258,146.784637 98.8801093,146.785131 C97.1131443,146.78548 96.7711607,146.75261 95.776486,146.486546 C91.2306225,145.270545 88.2653389,141.607576 87.4287813,136.174762 C87.2036516,134.712697 87.2065135,131.351656 87.4341472,129.849813 C88.1558805,125.088447 90.5510942,121.249898 93.8226321,119.611715 C95.3007584,118.871552 96.4401245,118.612261 98.4914747,118.549193 C100.683756,118.48179 101.646622,118.648209 103.120916,119.349325 C104.275328,119.898318 105.52259,121.012106 106.378659,122.258425 L106.940001,123.075667 L106.972087,121.204455 L107.004174,119.333242 L114.108332,119.333242 L121.212491,119.333242 L121.290414,117.329682 C121.381563,114.986238 121.659067,113.464476 122.191301,112.389461 C122.664685,111.433331 123.678576,110.407399 124.555363,109.997312 C126.292366,109.184883 129.165556,108.837127 132.200178,109.072019 L133.163861,109.146612 L133.163861,112.024541 L133.163861,114.902466 L131.478211,114.940073 C129.576494,114.982496 129.365302,115.061757 128.873016,115.917785 C128.640878,116.321437 128.611898,116.53474 128.610193,117.852349 L128.608368,119.333242 L130.944571,119.333242 L133.280774,119.333242 L133.280774,121.888507 L133.280774,124.443772 L130.944571,124.443772 L128.608368,124.443772 L128.608368,135.59402 L128.608368,146.744269 L124.987254,146.744269 L121.36614,146.744269 L121.36614,135.59402 L121.36614,124.443772 L117.692228,124.443772 L114.018315,124.443772 L113.973917,136.319948 C113.934504,146.859535 113.907404,148.307234 113.733124,149.183385 C113.197549,151.87584 112.545701,153.208349 111.025056,154.719201 C110.068476,155.669625 109.811786,155.852319 108.622282,156.429334 C106.231507,157.589083 103.926599,158.018168 100.188324,157.999414 C98.9179996,157.993025 97.4899154,157.918193 96.8944173,157.826773 L96.8943334,157.826773 Z M102.548995,140.600649 C103.488302,140.309962 104.281209,139.79047 105.056511,138.957802 C105.796747,138.162781 106.194661,137.406135 106.550629,136.116688 C106.773423,135.309671 106.808137,134.882074 106.814704,132.864532 C106.82091,130.949369 106.784041,130.398836 106.604563,129.728525 C105.66757,126.229217 103.168695,124.385803 99.9161421,124.79449 C97.415657,125.108678 95.7970993,126.723323 95.0535115,129.64536 C94.8307765,130.520621 94.7962956,130.964424 94.7988764,132.922607 C94.8017967,135.063777 94.8195007,135.244432 95.1250796,136.229715 C95.884079,138.677144 97.1870815,140.137478 99.0553208,140.634495 C99.9980151,140.885285 101.681972,140.868973 102.548995,140.600667 L102.548995,140.600649 Z M41.2168349,147.5045 C39.0041808,147.188838 36.8815144,146.39378 35.3497904,145.306954 C33.4435367,143.954387 31.6789992,141.469907 30.7354872,138.809985 C30.0248217,136.806497 29.8568597,135.692148 29.8568597,132.980681 C29.8568597,130.880253 29.8936877,130.372227 30.1220661,129.322039 C31.1351202,124.663645 33.8758108,120.990415 37.496381,119.438567 C39.4292711,118.610091 41.2208794,118.293594 43.9969379,118.290189 C50.1367157,118.28273 54.0427115,120.549889 56.4996265,125.547182 C57.6350684,127.85663 58.1007649,130.022428 58.0980427,132.980681 C58.0951105,136.07518 57.6249753,138.202155 56.4162459,140.588402 C54.4695722,144.431492 51.8551278,146.441245 47.6328431,147.340295 C46.195374,147.646375 42.8173308,147.732826 41.2168349,147.5045 L41.2168349,147.5045 Z M45.7266404,141.455893 C47.9510996,140.879779 49.4572823,139.182977 50.2010964,136.415171 C50.4724208,135.405566 50.5000464,135.095976 50.5025608,133.038755 C50.5043355,131.343867 50.4569434,130.565872 50.3134531,129.947418 C49.4341612,126.157698 47.3211207,124.31966 43.8625333,124.335929 C41.9563963,124.345075 40.4891296,124.93557 39.3752574,126.141949 C38.7546087,126.814144 38.0790884,128.024414 37.7947762,128.973561 C37.5034517,129.94613 37.2642172,131.699441 37.2634469,132.867581 C37.2605304,137.491639 38.9460422,140.550839 41.9711399,141.411426 C42.9026606,141.676426 44.7888997,141.698759 45.7266404,141.455893 Z M146.88907,147.540012 C142.078993,146.927867 138.797388,144.564881 136.734579,140.228066 C134.970768,136.519872 134.702211,131.609273 136.039676,127.521705 C136.976423,124.658843 138.925061,121.88871 140.97628,120.503982 C143.237468,118.977501 145.839261,118.28865 149.342083,118.28906 C154.849739,118.289786 158.415565,119.990283 160.920033,123.810713 C162.661672,126.467477 163.389553,128.875404 163.498865,132.341865 C163.599891,135.545438 163.176221,137.790383 162.012022,140.22048 C160.209608,143.982727 157.586192,146.223332 153.892783,147.154937 C151.952545,147.644328 148.989083,147.807266 146.88907,147.540012 L146.88907,147.540012 Z M150.942477,141.505383 C152.714578,141.137926 154.074539,140.025326 154.932054,138.241438 C155.762997,136.51287 155.883896,135.835028 155.880832,132.922607 C155.878219,130.689135 155.849929,130.322559 155.61141,129.451417 C154.926414,126.949616 153.607967,125.354238 151.64893,124.656632 C150.803447,124.355558 148.806311,124.240912 147.849096,124.438498 C145.357361,124.952851 143.595105,126.968995 142.971422,130.018896 C142.631468,131.681282 142.686731,135.022639 143.078023,136.465133 C143.825921,139.222257 145.281434,140.833555 147.589931,141.459969 C148.306641,141.654449 150.106043,141.678822 150.942477,141.505383 L150.942477,141.505383 Z M239.535253,147.541671 C236.509319,147.155282 233.506751,145.753214 231.357116,143.722834 C228.68527,141.199227 227.427389,136.971366 227.780273,131.700722 C228.059321,127.532896 229.277125,124.49887 231.596741,122.192388 C234.329536,119.475081 237.809346,118.251377 242.25549,118.444162 C244.125037,118.525223 245.21735,118.707104 246.642025,119.174561 C249.334535,120.058008 251.388897,121.636225 252.953488,124.02317 C254.575105,126.497124 255.230468,129.124104 255.230468,133.150327 L255.230468,134.89713 L245.109257,134.89713 L234.988031,134.89713 L235.060092,135.744795 C235.369438,139.383566 237.743838,141.647302 241.441886,141.829122 C244.022116,141.955985 245.908366,141.144909 247.016766,139.431952 L247.462594,138.742949 L251.171316,138.736488 C253.279658,138.732822 254.880037,138.774872 254.880037,138.833944 C254.880037,139.153381 254.335899,140.631312 253.988776,141.25472 C252.0653,144.709116 248.427026,147.017747 244.0751,147.545352 C242.863721,147.69221 240.700445,147.690461 239.535253,147.541686 L239.535253,147.541671 Z M247.70342,129.629476 C247.402926,127.238024 246.052685,125.50787 243.84148,124.680915 C242.991617,124.363078 241.042417,124.236128 239.986746,124.429856 C238.286038,124.741954 236.906776,125.791896 236.038037,127.435745 C235.636736,128.195101 235.104794,129.967323 235.219118,130.164082 C235.24697,130.211993 238.08488,130.251193 241.525624,130.251193 L247.781533,130.251193 L247.70342,129.629476 Z M206.637453,147.483379 C203.823847,146.950305 201.591102,145.540289 199.762184,143.141512 C197.561948,140.255728 196.598451,136.390632 196.939759,131.819197 C197.456012,124.904355 200.405212,120.482167 205.553243,118.903689 C206.510586,118.610153 206.723272,118.589068 208.740035,118.587776 C210.77662,118.586324 210.954967,118.604363 211.837968,118.898397 C213.498482,119.451354 215.051122,120.564364 216.056682,121.922593 L216.566314,122.610954 L216.566314,116.035792 L216.566314,109.460626 L220.245833,109.460626 L223.925352,109.460626 L223.925352,128.102448 L223.925352,146.744269 L220.423947,146.744269 L216.922527,146.744269 L216.89044,144.861245 L216.858354,142.978225 L216.235698,143.813692 C214.935053,145.558872 213.256141,146.751659 211.368278,147.271749 C210.678923,147.461659 207.316696,147.612068 206.637467,147.483379 L206.637453,147.483379 Z M212.346559,141.298766 C213.345603,140.989594 213.981295,140.586998 214.715421,139.798546 C215.495574,138.960662 216.120099,137.734861 216.472924,136.348985 C216.704771,135.438251 216.737872,135.026973 216.729943,133.154903 C216.721766,131.225094 216.689877,130.890906 216.41702,129.875025 C215.819525,127.650507 214.688124,126.129362 213.026945,125.317118 C211.367234,124.505589 209.2071,124.557318 207.561304,125.448002 C205.455754,126.587491 204.137971,130.053919 204.344481,133.909868 C204.562182,137.97466 206.130858,140.637217 208.727478,141.349236 C209.582517,141.583696 211.512838,141.556779 212.346559,141.298766 Z M13.1414684,147.324967 C12.1021904,147.141511 10.6335403,146.607195 9.95188015,146.164554 C9.31162922,145.748797 8.10186318,144.571716 7.44397756,143.72441 L7.12833833,143.31789 L7.1268782,145.031079 L7.12541808,146.744269 L3.56270904,146.744269 L0,146.744269 L0,128.102448 L0,109.460626 L3.62015042,109.460626 L7.24030084,109.460626 L7.27045246,116.036627 L7.30060407,122.612624 L7.88465474,121.8836 C9.04222855,120.438695 10.9103839,119.2324 12.677097,118.789054 C13.3004616,118.632627 13.9437314,118.586629 15.4189083,118.592999 C17.0969004,118.600258 17.490817,118.639578 18.4634001,118.897025 C21.6446255,119.739101 23.9571522,121.753662 25.5149321,125.039977 C26.5639528,127.253007 27.0057616,129.506 27.0037716,132.632236 C27.0019397,135.719961 26.5593352,138.129156 25.5789806,140.390224 C24.0450555,143.92804 21.7640164,146.111507 18.6311869,147.040825 C17.7123219,147.313396 17.3371132,147.357427 15.6525285,147.390373 C14.5924766,147.411099 13.4623386,147.381662 13.1411107,147.324967 L13.1414684,147.324967 Z M15.5891554,141.186962 C18.3912261,139.937503 19.8509256,136.301099 19.3927269,131.711498 C18.9288593,127.065075 16.8782611,124.792218 13.1500686,124.792218 C11.4574167,124.792218 10.056323,125.366415 8.99423053,126.495364 C8.18949268,127.35076 7.69560849,128.316974 7.33474549,129.741904 C7.10546545,130.647259 7.07390846,131.065975 7.07751862,133.154903 C7.08116894,135.241778 7.11332823,135.649909 7.33826804,136.458393 C8.0583295,139.046605 9.5639099,140.780809 11.5767529,141.340507 C12.5530045,141.611971 14.831576,141.524773 15.5891554,141.186962 L15.5891554,141.186962 Z M264.033301,146.921239 C261.205854,146.410984 259.811539,145.193067 259.442641,142.911371 C259.365536,142.434454 259.320261,138.894675 259.31971,133.300089 L259.318979,124.443772 L257.391612,124.443772 L255.464245,124.443772 L255.464245,121.888507 L255.464245,119.333242 L257.391612,119.333242 L259.318979,119.333242 L259.318979,115.500344 L259.318979,111.667446 L262.881688,111.667446 L266.444398,111.667446 L266.444398,115.500344 L266.444398,119.333242 L268.722195,119.333242 L271,119.333242 L271,121.886003 L271,124.438756 L268.751398,124.470298 L266.502803,124.501839 L266.470899,131.993412 C266.438448,139.609758 266.488274,140.768153 266.866206,141.18338 C267.178451,141.526461 267.890478,141.655494 269.50629,141.661832 L271,141.667675 L271,144.305315 L271,146.942951 L270.211532,147.016996 C268.869909,147.142988 264.923303,147.081803 264.033466,146.921217 L264.033301,146.921239 Z M62.143319,128.044373 L62.143319,109.344478 L65.7644331,109.344478 L69.3855472,109.344478 L69.3855472,128.044373 L69.3855472,146.744269 L65.7644331,146.744269 L62.143319,146.744269 L62.143319,128.044373 Z M75.1092437,132.922607 L75.1092437,119.100945 L78.7887628,119.100945 L82.468282,119.100945 L82.468282,132.922607 L82.468282,146.744269 L78.7887628,146.744269 L75.1092437,146.744269 L75.1092437,132.922607 Z M167.389248,132.980681 L167.389248,119.217093 L170.890796,119.217093 L174.392344,119.217093 L174.424285,121.207975 L174.456261,123.198854 L175.215527,122.178882 C176.551379,120.384352 177.823208,119.455071 179.771122,118.850282 C180.557149,118.606236 180.869313,118.578277 182.808186,118.578277 C184.554136,118.578277 185.137438,118.620987 185.845249,118.800658 C189.312444,119.680762 191.259797,121.493283 192.12793,124.648346 L192.43917,125.779479 L192.476502,136.261874 L192.513845,146.744269 L188.829117,146.744269 L185.144388,146.744269 L185.144388,138.117203 C185.144388,129.200631 185.096544,128.082223 184.666215,126.938579 C184.332302,126.051161 183.566517,125.250158 182.669251,124.849773 C182.079477,124.586595 181.715157,124.511392 180.823078,124.468679 C178.231693,124.3446 176.497391,125.293837 175.499996,127.382179 C174.702402,129.052157 174.712532,128.920245 174.662628,138.294471 L174.617645,146.744269 L171.003449,146.744269 L167.389248,146.744269 L167.389248,132.980681 Z M75.1092437,112.422411 L75.1092437,109.112181 L78.7887628,109.112181 L82.468282,109.112181 L82.468282,112.422411 L82.468282,115.732641 L78.7887628,115.732641 L75.1092437,115.732641 L75.1092437,112.422411 Z" id="path2570"></path>
            <g id="Group-3" transform="translate(94.000000, 0.000000)">
                <path d="M37.1497359,83.8446446 C30.0117958,82.8526384 23.3916614,79.1232699 19.3415581,73.8126356 C18.1090855,72.1965761 17.730438,71.2810922 17.7254816,69.905394 C17.7166234,67.4219078 19.517618,65.5407112 21.9041132,65.5407112 C23.57553,65.5407112 24.4209832,66.0309553 25.741766,67.7660075 C28.353816,71.1973367 31.6707523,73.3567296 36.1348004,74.532079 C37.5783003,74.9121398 38.2196744,74.9696366 40.8859521,74.9580252 C43.606607,74.9461744 44.1859914,74.8863424 45.8231038,74.4481951 C50.1076033,73.3015095 52.9284816,71.3745735 56.3572014,67.252377 C57.3929331,66.0071603 58.3004582,65.5407112 59.6874176,65.5407112 C61.694548,65.5407112 63.2169743,66.7150565 63.8045119,68.716495 C64.4359149,70.8673763 63.419559,72.911898 60.0408928,76.287441 C56.3682349,79.9567089 51.8756567,82.3399828 46.4495161,83.497556 C44.45733,83.9225564 39.1386621,84.1210604 37.1497359,83.8446446 L37.1497359,83.8446446 Z" id="path2570-path"></path>
                <path d="M2.42249615,82.4218526 C1.34718335,81.8860033 0.471501836,80.8586898 0.149174961,79.754889 C0.0164242797,79.3002907 -0.02657665,72.8006347 0.0155871337,59.5627653 L0.077764777,40.0410361 L0.593216085,38.2663334 C1.21714726,36.1181375 2.47516045,33.4997097 3.56236785,32.0863516 C5.1266775,30.05277 29.2629775,4.16988112 30.3551593,3.35474382 C31.8283868,2.25521625 34.4816309,0.992136053 36.3090873,0.520368701 C38.2347348,0.0232534581 41.4861922,-0.148986109 43.4697359,0.141043512 C46.3147975,0.557047836 48.9688513,1.66173605 51.2490874,3.37901171 C51.9840129,3.93249128 54.3593415,6.3123209 56.6984289,8.83867441 C58.9790193,11.3018508 60.9306669,13.3457479 61.0354269,13.380664 C61.1592066,13.4219375 61.2461728,12.1699957 61.2838152,9.80494166 L61.3417266,6.16572695 L61.9104546,5.35635744 C62.2232576,4.91120479 62.8537441,4.33681993 63.3115356,4.07995506 C64.127572,3.6220876 64.2226295,3.61292804 68.1603212,3.61292804 L72.1767536,3.61292804 L73.0682848,4.1369849 C73.558634,4.42521647 74.1891205,5.0074649 74.4693659,5.43087744 L74.9789157,6.20071312 L75.0298801,17.4664908 L75.0808444,28.7322744 L76.4371726,30.183415 C78.1508874,32.0169105 78.8284677,33.0055542 79.8415661,35.1506677 C80.9000946,37.3919713 81.3898133,39.3251129 81.624652,42.1893605 C81.7430492,43.6334839 81.794749,51.1536407 81.7601307,61.8979004 C81.7048463,79.0625389 81.6994639,79.2814345 81.3140615,80.1140503 C80.4907454,81.892746 78.937466,82.9059145 77.0338814,82.9059145 C75.5957125,82.9059145 74.6155395,82.4607268 73.6575854,81.3724371 C72.2009281,79.7175852 72.2702057,80.7751387 72.2702057,60.1927322 C72.2702057,40.0090331 72.3122381,40.7800889 71.0932742,38.5966967 C70.3904394,37.3377786 46.508703,11.4610253 45.2872218,10.634872 C44.1646646,9.8756262 43.1445672,9.53150901 41.6021042,9.39173366 C39.0418883,9.15973214 36.9476084,9.88592414 35.2050762,11.6099077 C33.4264447,13.3696072 11.285705,37.3731968 10.8457509,38.0187449 C10.6088497,38.3663531 10.1885254,39.2157644 9.9116969,39.9063339 L9.40832466,41.161901 L9.31491925,60.3100085 C9.21177984,81.4535597 9.29982844,80.0123259 8.02240327,81.4672319 C6.69264773,82.9817363 4.34808361,83.381418 2.42249031,82.4218526 L2.42249615,82.4218526 Z" id="path2570-path"></path>
                <path d="M23.5715678,55.3920155 C22.3282094,54.9336051 21.3418967,54.0423313 20.7358638,52.8295497 C20.1565057,51.6701551 20.1499521,51.6253555 20.1499521,48.8245886 C20.1499521,45.5901462 20.3487112,44.7340681 21.3791731,43.5302067 C21.7358527,43.1135077 22.5088905,42.5362623 23.0970328,42.2474528 C24.124909,41.7427017 24.2750693,41.7223334 26.9685467,41.7223334 C29.6620241,41.7223334 29.8121844,41.7427075 30.8400607,42.2474528 C32.0952051,42.8638 33.09041,43.9473436 33.4967848,45.1399905 C33.8372475,46.139189 33.9043762,50.82009 33.5942574,51.9366465 C33.2301462,53.2476031 32.2960116,54.3675923 31.0153604,55.0286392 L29.8314708,55.6397383 L26.998928,55.6255523 C25.3298855,55.6172042 23.9220564,55.5212593 23.5715678,55.3920388 L23.5715678,55.3920155 Z" id="path2570-path"></path>
                <path d="M50.3198963,55.1992092 C49.1691826,54.6609839 48.2501201,53.7574214 47.7277387,52.6507659 C47.371724,51.8965464 47.3309233,51.4836128 47.3309233,48.6343334 C47.3309233,45.7186895 47.3646077,45.3955594 47.7423216,44.6895488 C48.4053774,43.4501291 49.0528345,42.8032325 50.188364,42.245608 C51.213751,41.742077 51.3596736,41.7225378 54.0561125,41.7276692 C56.582145,41.7323395 56.9544998,41.7760065 57.8347447,42.1691557 C59.0123534,42.6951449 60.1391728,43.8666997 60.5815233,45.0249793 C60.8552537,45.7417257 60.8969884,46.378336 60.8441385,49.0304541 C60.7833782,52.0793174 60.7642943,52.2126712 60.267757,53.0573421 C59.9853049,53.5378195 59.4435945,54.1869754 59.0639482,54.4999127 C57.9245132,55.4391326 57.0266379,55.6399601 53.9761341,55.6379322 C51.5155614,55.6361655 51.1641878,55.5940747 50.3198963,55.1992092 L50.3198963,55.1992092 Z" id="path2570-path"></path>
            </g>
        </g>
    </g>
</svg>