<?xml version="1.0" encoding="UTF-8"?>
<svg width="36px" height="36px" viewBox="0 0 36 36" version="1.1" xmlns="http://www.w3.org/2000/svg" xmlns:xlink="http://www.w3.org/1999/xlink">
    <!-- Generator: Sketch 63.1 (92452) - https://sketch.com -->
    <title>ic_logo_header@3x</title>
    <desc>Created with Sketch.</desc>
    <g id="assets" stroke="none" stroke-width="1" fill="none" fill-rule="evenodd">
        <g id="Group-3" fill="#009080" fill-rule="nonzero">
            <path d="M15.9213154,35.9334191 C12.8621982,35.5082736 10.0249978,33.9099728 8.28923919,31.6339867 C7.76103662,30.9413898 7.59875916,30.5490395 7.59663499,29.9594546 C7.59283859,28.8951033 8.36469341,28.0888762 9.38747709,28.0888762 C10.1037986,28.0888762 10.4661356,28.2989809 11.0321854,29.0425746 C12.1516354,30.5131443 13.5731796,31.4385984 15.486343,31.9423196 C16.1049859,32.1052028 16.3798605,32.1298443 17.5225509,32.1248679 C18.6885458,32.119789 18.9368534,32.0941467 19.6384731,31.9063693 C21.4746871,31.4149326 22.683635,30.5891029 24.1530863,28.8224473 C24.5969713,28.288783 24.9859107,28.0888762 25.5803218,28.0888762 C26.4405206,28.0888762 27.092989,28.5921671 27.3447908,29.4499264 C27.6153921,30.3717327 27.179811,31.2479563 25.7318112,32.6946176 C24.157815,34.2671609 22.2324243,35.2885641 19.9069355,35.7846669 C19.0531414,35.9668099 16.7737123,36.051883 15.9213154,35.9334191 L15.9213154,35.9334191 Z" id="path2570-path"></path>
            <path d="M1.03821264,35.3236511 C0.577364293,35.0940014 0.202072216,34.6537242 0.063932126,34.1806667 C0.00703897701,33.9858389 -0.0113899929,31.200272 0.00668020018,25.5268994 L0.0333277616,17.1604441 L0.254235465,16.3998572 C0.521634541,15.4792018 1.06078305,14.3570184 1.52672908,13.7512935 C2.1971475,12.8797586 12.5412761,1.78709191 13.009354,1.43774735 C13.6407372,0.966521251 14.7778418,0.425201165 15.5610374,0.223015158 C16.3863149,0.00996576776 17.7797966,-0.0638511898 18.6298868,0.0604472195 C19.8491989,0.238734787 20.9866506,0.712172594 21.9638946,1.44814788 C22.2788627,1.68535341 23.2968606,2.70528039 24.2993267,3.78800332 C25.2767226,4.84365036 26.113143,5.71960625 26.1580401,5.7345703 C26.2110885,5.75225895 26.2483598,5.21571245 26.2644922,4.20211785 L26.2893114,2.64245441 L26.533052,2.29558176 C26.6671104,2.10480205 26.9373189,1.85863711 27.1335153,1.74855217 C27.4832451,1.55232326 27.5239841,1.54839773 29.2115662,1.54839773 L30.9328944,1.54839773 L31.3149792,1.77299353 C31.5251289,1.89652134 31.7953374,2.14605639 31.9154425,2.3275189 L32.133821,2.65744848 L32.1556629,7.48563893 L32.1775047,12.3138319 L32.7587883,12.9357493 C33.4932375,13.7215331 33.783629,14.1452375 34.2178141,15.0645719 C34.6714691,16.0251305 34.8813485,16.8536198 34.9819937,18.0811545 C35.0327354,18.7000645 35.0548924,21.9229889 35.040056,26.5276716 C35.0163627,33.8839452 35.0140559,33.9777576 34.8488835,34.334593 C34.4960337,35.0968912 33.8303426,35.5311062 33.0145206,35.5311062 C32.3981625,35.5311062 31.9780884,35.3403115 31.5675366,34.8739016 C30.9432549,34.1646794 30.9729453,34.6179166 30.9729453,25.7968852 C30.9729453,17.1467285 30.9909592,17.477181 30.4685461,16.5414414 C30.1673312,16.0019051 19.9323013,4.911868 19.4088094,4.5578023 C18.9277134,4.23241123 18.4905288,4.08493243 17.8294732,4.02502871 C16.7322378,3.92559949 15.8346893,4.23682463 15.0878898,4.97567473 C14.3256191,5.72983164 4.83673072,16.0170843 4.64817898,16.2937478 C4.54664989,16.4427228 4.36651089,16.8067562 4.2478701,17.1027145 L4.03213914,17.6408147 L3.99210825,25.8471465 C3.94790564,34.9086684 3.98564076,34.2909968 3.43817283,34.914528 C2.8682776,35.5636013 1.8634644,35.7348934 1.03821013,35.3236511 L1.03821264,35.3236511 Z" id="path2570-path"></path>
            <path d="M10.1021005,23.7394352 C9.56923259,23.5429736 9.14652718,23.1609991 8.88679877,22.6412356 C8.63850243,22.1443522 8.63569376,22.1251524 8.63569376,20.9248237 C8.63569376,19.5386341 8.72087624,19.1717435 9.16250275,18.6558029 C9.31536545,18.4772176 9.64666734,18.2298267 9.89872833,18.1060512 C10.3392467,17.8897293 10.4036011,17.881 11.5579486,17.881 C12.712296,17.881 12.7766504,17.8897318 13.2171689,18.1060512 C13.7550879,18.3702 14.1816043,18.8345758 14.3557649,19.3457102 C14.5016775,19.7739381 14.5304469,21.7800386 14.3975389,22.2585628 C14.2414912,22.8204013 13.8411478,23.3003967 13.2922973,23.5837025 L12.7849161,23.8456021 L11.5709691,23.8395224 C10.8556652,23.8359447 10.2523099,23.7948254 10.1021005,23.7394452 L10.1021005,23.7394352 Z" id="path2570-path"></path>
            <path d="M21.5656698,23.6568039 C21.0725068,23.426136 20.6786229,23.0388949 20.4547452,22.5646139 C20.3021674,22.241377 20.2846814,22.0644055 20.2846814,20.8432858 C20.2846814,19.5937241 20.2991176,19.4552397 20.460995,19.1526638 C20.7451617,18.6214839 21.0226433,18.3442425 21.5092989,18.1052606 C21.9487504,17.8894616 22.0112887,17.8810876 23.1669054,17.8832868 C24.2494907,17.8852884 24.4090713,17.9040028 24.7863192,18.0724953 C25.2910086,18.2979192 25.7739312,18.8000142 25.96351,19.2964197 C26.080823,19.6035967 26.0987093,19.8764297 26.0760593,21.0130518 C26.0500192,22.3197075 26.0418404,22.3768591 25.8290387,22.7388609 C25.7079878,22.9447798 25.4758262,23.2229895 25.3131206,23.3571054 C24.8247914,23.7596283 24.4399877,23.8456972 23.1326289,23.8448281 C22.0780977,23.8440709 21.927509,23.826032 21.5656698,23.6568039 L21.5656698,23.6568039 Z" id="path2570-path"></path>
        </g>
    </g>
</svg>