<?xml version="1.0" encoding="UTF-8"?>
<svg width="24px" height="24px" viewBox="0 0 24 24" version="1.1" xmlns="http://www.w3.org/2000/svg" xmlns:xlink="http://www.w3.org/1999/xlink">
    <!-- Generator: Sketch 63.1 (92452) - https://sketch.com -->
    <title>ic_detail_5@3x</title>
    <desc>Created with Sketch.</desc>
    <g id="assets" stroke="none" stroke-width="1" fill="none" fill-rule="evenodd">
        <g id="Group-2" transform="translate(2.000000, 2.000000)" fill="#1D9E89" fill-rule="nonzero">
            <g id="Utbytte-Transparrent">
                <path d="M10.8671583,18.4692963 C9.59019549,18.2952045 7.81610197,17.9606377 6.72631324,17.6883966 C6.43194704,17.6148608 6.05420056,17.5449825 5.88687606,17.5331121 L5.5826507,17.511529 L5.59407662,15.261538 C5.60547155,13.0176873 5.60584056,13.0112828 5.72928845,12.9145927 C6.14058761,12.5924434 7.00672732,12.2495414 7.70589746,12.1320603 C8.14173859,12.0588259 9.6043262,12.0972214 13.2671679,12.2780524 C14.9118642,12.3592496 15.0331273,12.3863825 15.2356361,12.7185082 C15.4778862,13.1158107 15.3015014,13.6336597 14.8793989,13.7643876 C14.7797087,13.795262 14.0136372,13.8622315 13.1770175,13.9132085 C11.7537639,13.9999296 11.1197949,14.071182 10.4023696,14.225053 C10.1207465,14.2854546 10.1066541,14.297027 10.1078321,14.46692 C10.1106603,14.874742 10.5303392,15.4222468 11.0564963,15.6836017 C11.8188152,16.0622642 11.4202141,15.8237442 11.0925104,15.642098 C10.5755144,15.3555268 10.162933,14.8199696 10.162933,14.4354468 C10.162933,14.3241668 11.1524586,14.1321217 11.9820231,14.0824017 L12.5898451,14.0459718 L12.7868,14.2189008 C13.0675183,14.4653741 13.3270327,14.4576028 13.5744028,14.1953144 C13.7520208,14.0069837 13.7804563,13.997387 14.2571115,13.9649037 C14.9017296,13.920973 15.0785414,13.863147 15.2840986,13.629031 C15.5893403,13.2813797 15.5681617,12.8355476 15.2295758,12.4812501 L15.0617054,12.3055899 L15.1528237,11.9543431 C15.3845121,11.0612214 14.8860946,10.0709425 13.9652338,9.59478423 L13.5999696,9.4059138 L13.6022682,8.67351944 C13.6044766,7.96969521 13.6083166,7.94620338 13.7006513,8.07131042 C13.9554056,8.41648563 14.0326513,8.48169239 14.2192687,8.50910085 C14.4994592,8.55025296 14.7648755,8.37484901 14.813342,8.11649859 C14.9007313,7.65067437 14.4428056,7.04919042 13.8611932,6.86585296 L13.5432146,6.76561859 L13.5432146,6.42025014 C13.5432146,6.11539324 13.52468,6.05712451 13.3852023,5.92349634 C13.1668327,5.71428507 12.8491741,5.71428507 12.6308045,5.92349634 C12.4847713,6.06340507 12.4727921,6.10740113 12.4727921,6.50381972 L12.4727921,6.93275718 L12.2158777,7.05757577 C11.5985955,7.35747493 11.1223132,8.00993634 11.1212299,8.55714085 C11.1201707,9.09204563 11.5597234,9.68788845 12.2043639,10.0254011 L12.5137414,10.1873808 L12.5496051,10.6926259 C12.6018513,11.4286761 12.5935521,12.0256321 12.5310727,12.0256321 C12.4312485,12.0256321 12.1392732,11.6973397 12.108649,11.5506654 C12.0920259,11.4710518 12.0647189,11.3403504 12.0479656,11.2602169 C11.9646755,10.861822 11.4567634,10.704231 11.1384614,10.9780225 C11.0065296,11.0915054 10.9808558,11.1578451 10.9803904,11.3864732 C10.9801087,11.5366023 10.9997544,11.7308389 11.0241014,11.8181099 L11.0683685,11.9767848 L10.179031,11.9307859 C8.28509521,11.8328265 7.42842028,11.8809397 6.8046569,12.1202997 C6.72277127,12.1517223 6.71543211,12.1274885 6.74888225,11.9361285 C6.81323775,11.5679662 7.05918479,10.7938079 7.32899211,10.1101392 C8.30758592,7.63046535 10.0791561,5.12803042 11.5937296,4.08597656 C11.7852941,3.95417662 11.909898,3.91202118 12.1167459,3.909032 L12.3882851,3.90510806 L12.1206794,3.82282023 C11.9517944,3.77088868 11.8530738,3.70829093 11.8530738,3.65313408 C11.8530738,3.58399882 11.8972208,3.572436 12.0643414,3.59780011 C12.6784806,3.69100885 13.13552,3.69580665 13.4868766,3.61273335 C14.0061825,3.48995082 14.1173211,3.65707707 13.6393228,3.84197701 C13.4658372,3.90908507 13.4698276,3.91062761 13.7403977,3.88105437 C13.9911487,3.85364738 14.053027,3.87060225 14.303778,4.03542135 C14.6817769,4.2838809 15.6120096,5.18784282 16.0619515,5.74394197 C17.6951487,7.76246873 19.1129797,10.7722428 19.2599566,12.5326744 C19.3244687,13.3053685 19.097151,14.2480558 18.7762941,14.538427 C18.6061082,14.6924439 18.6469696,14.7277662 18.9960659,14.7298575 C19.3813268,14.7321673 19.7871989,14.9080501 19.8943054,15.1242237 C19.9861313,15.3095566 19.9868355,15.8823662 19.8953251,15.9552468 C19.7987414,16.0321696 16.3479859,17.26872 14.3882828,17.9286507 L12.7826513,18.4693487 L11.9094118,18.4808434 C11.4291301,18.4871656 10.9601161,18.4819701 10.8671583,18.4692963 L10.8671583,18.4692963 Z M11.8378158,15.9352563 C11.768831,15.9386423 11.5441301,15.8810282 11.496067,15.8839949 C11.4477521,15.8869752 11.6944614,15.9555583 11.7638721,15.9648485 C11.8056777,15.9704428 13.8478203,15.62532 15.7132377,15.2680699 C16.8319594,15.0538214 17.9240208,14.8549797 18.4389572,14.7429859 C18.5617961,14.7162693 18.6271696,14.7061623 18.6580794,14.6901059 C18.6808254,14.6782901 18.6881318,14.6837301 18.6761921,14.6630924 L11.8378158,15.9352563 Z M0.0631761127,16.9394946 C0.0779888451,16.1734901 0.106493915,14.8673025 0.126520676,14.0368563 L0.162933014,12.5269532 L2.18963797,12.5311673 C3.30432563,12.5334828 4.23374845,12.5537859 4.25502192,12.5762811 C4.27629538,12.5987769 4.30229662,13.8826575 4.31280254,15.4293504 L4.33190411,18.2415183 L4.19108056,18.2556394 C4.11362755,18.2634056 3.147104,18.2838158 2.04325042,18.3009955 L0.0362438648,18.332231 L0.0631761127,16.9394952 L0.0631761127,16.9394946 Z M4.54893808,15.4588394 C4.56983358,13.9971594 4.59678924,12.7851786 4.60883955,12.7655487 C4.62088992,12.7459183 4.7980258,12.7383589 5.00247493,12.7487493 L5.37420056,12.7676406 L5.37436958,14.5515662 C5.37448225,15.5327251 5.39096676,16.7311256 5.4110231,17.2146789 L5.44748901,18.0938659 L4.97920839,18.1051527 L4.51092772,18.1164389 L4.54891949,15.4588394 L4.54893808,15.4588394 Z M13.6912496,11.8171735 C13.6453358,11.4821949 13.6455341,10.7298575 13.6915313,10.7298575 C13.7561228,10.7298575 13.9504625,10.9800845 14.0292293,11.1646676 C14.1785685,11.5146315 14.1166935,11.8195493 13.862547,11.9860721 C13.7267386,12.0750575 13.726569,12.0748901 13.6912451,11.8171735 L13.6912496,11.8171735 Z M12.3406789,8.76767493 C12.216102,8.63001915 12.2230546,8.46535549 12.3601161,8.30732225 L12.4727921,8.17740563 L12.4727921,8.52405408 C12.4727921,8.71471099 12.4640451,8.87070254 12.4533549,8.87070254 C12.4426642,8.87070254 12.39196,8.82434028 12.3406789,8.76767493 Z M12.0706338,3.37028766 C12.0198693,3.35568507 11.8203825,3.08185713 11.6273296,2.76178107 C11.1545617,1.97794513 10.6680811,1.41004755 10.219271,1.11807149 C9.58901183,0.708052845 9.54959099,0.622689521 9.91124789,0.451072056 C10.3984349,0.219886648 11.0440687,0.209620507 11.7322479,0.422116507 C12.3431882,0.610762873 12.6218265,0.569467042 13.0755375,0.223033127 C13.2788777,0.0677713239 13.3860039,0.0256321127 13.5773718,0.0256321127 C14.1316315,0.0256321127 14.798498,0.440654648 15.1026197,0.974865803 C15.3292361,1.37293437 15.5105594,1.54547442 15.8812428,1.71577296 C16.0671583,1.80118586 16.2915594,1.94794366 16.3799115,2.04190141 L16.5405521,2.21273369 L16.4080806,2.29809634 C16.3352214,2.3450458 16.1108203,2.43341639 15.9094118,2.49447544 C15.7080034,2.55553442 15.2896935,2.68317397 14.9798344,2.77811876 C14.6699752,2.87306361 14.2643414,3.04628828 14.0784259,3.16306248 L13.7403977,3.37537932 L12.9516654,3.38610851 C12.5178625,3.39200958 12.1213983,3.38488992 12.0706338,3.37028766 L12.0706338,3.37028766 Z" id="path2574"></path>
            </g>
        </g>
    </g>
</svg>