<?xml version="1.0" encoding="UTF-8"?>
<svg width="38px" height="38px" viewBox="0 0 38 38" version="1.1" xmlns="http://www.w3.org/2000/svg" xmlns:xlink="http://www.w3.org/1999/xlink">
    <!-- Generator: Sketch 63.1 (92452) - https://sketch.com -->
    <title>ic_card_2_active@3x</title>
    <desc>Created with Sketch.</desc>
    <g id="assets" stroke="none" stroke-width="1" fill="none" fill-rule="evenodd">
        <g id="Group-12" transform="translate(1.000000, 1.000000)">
            <circle id="Oval-Copy-3" stroke="#58DCC2" fill="#FFFFFF" cx="18" cy="18" r="18"></circle>
            <g id="Group-2" transform="translate(7.000000, 7.000000)" fill="#009080" fill-rule="nonzero">
                <g id="Utbytte-Transparrent">
                    <path d="M11.9538741,20.316226 C10.549215,20.124725 8.59771217,19.7567015 7.39894456,19.4572363 C7.07514175,19.3763469 6.65962062,19.2994808 6.47556366,19.2864233 L6.14091577,19.2626819 L6.15348428,16.7876918 C6.1660187,14.3194561 6.16642462,14.3124111 6.3022173,14.2060519 C6.75464637,13.8516877 7.70740006,13.4744955 8.47648721,13.3452663 C8.95591245,13.2647085 10.5647588,13.3069435 14.5938847,13.5058576 C16.4030506,13.5951745 16.5364401,13.6250208 16.7591997,13.990359 C17.0256748,14.4273918 16.8316515,14.9970257 16.3673388,15.1408264 C16.2576796,15.1747882 15.4150009,15.2484547 14.4947192,15.3045293 C12.9291403,15.3999225 12.2317744,15.4783002 11.4426065,15.6475583 C11.1328211,15.7140001 11.1173195,15.7267297 11.1186153,15.913612 C11.1217263,16.3622162 11.5833731,16.9644714 12.162146,17.2519619 C13.0006967,17.6684906 12.5622355,17.4061186 12.2017615,17.2063078 C11.6330658,16.8910794 11.1792263,16.3019665 11.1792263,15.8789914 C11.1792263,15.7565834 12.2677045,15.5453339 13.1802254,15.4906419 L13.8488296,15.450569 L14.06548,15.6407909 C14.3742701,15.9119115 14.6597359,15.9033631 14.9318431,15.6148458 C15.1272229,15.407682 15.158502,15.3971257 15.6828227,15.361394 C16.3919025,15.3130703 16.5863955,15.2494617 16.8125085,14.9919341 C17.1482743,14.6095177 17.1249779,14.1191024 16.7525334,13.7293752 L16.5678759,13.5361488 L16.668106,13.1497774 C16.9229633,12.1673435 16.3747041,11.0780368 15.3617572,10.5542626 L14.9599665,10.3465052 L14.962495,9.54087138 C14.9649243,8.76666473 14.9691483,8.74082372 15.0707164,8.87844146 C15.3509462,9.2581342 15.4359164,9.32986163 15.6411956,9.36001093 C15.9494051,9.40527825 16.241363,9.21233392 16.2946762,8.92814845 C16.3908044,8.4157418 15.8870862,7.75410946 15.2473126,7.55243825 L14.8975361,7.44218045 L14.8975361,7.06227515 C14.8975361,6.72693256 14.877148,6.66283696 14.7237225,6.51584597 C14.4835159,6.28571358 14.1340915,6.28571358 13.893885,6.51584597 C13.7332484,6.66974558 13.7200713,6.71814124 13.7200713,7.15420169 L13.7200713,7.6260329 L13.4374655,7.76333335 C12.758455,8.09322242 12.2345446,8.81092997 12.2333528,9.41285493 C12.2321878,10.0012502 12.7156957,10.6566773 13.4248003,11.0279412 L13.7651155,11.2061189 L13.8045656,11.7618885 C13.8620364,12.5715437 13.8529073,13.2281953 13.7841799,13.2281953 C13.6743733,13.2281953 13.3532006,12.8670737 13.3195139,12.7057319 C13.3012285,12.618157 13.2711908,12.4743855 13.2527622,12.3862386 C13.161143,11.9480042 12.6024397,11.7746541 12.2523075,12.0758248 C12.1071825,12.2006559 12.0789414,12.2736296 12.0784295,12.5251206 C12.0781196,12.6902625 12.0997298,12.9039228 12.1265115,12.9999208 L12.1752053,13.1744633 L11.1969341,13.1238645 C9.11360473,13.0161091 8.17126231,13.0690337 7.48512259,13.3323297 C7.39504839,13.3668945 7.38697532,13.3402373 7.42377048,13.1297413 C7.49456152,12.7247628 7.76510327,11.8731887 8.06189132,11.1211531 C9.13834451,8.39351189 11.0870717,5.64083346 12.7531025,4.49457422 C12.9638235,4.34959428 13.1008878,4.3032233 13.3284205,4.2999352 L13.6271136,4.29561886 L13.3327474,4.20510225 C13.1469738,4.14797754 13.0383812,4.07912002 13.0383812,4.01844749 C13.0383812,3.9423987 13.0869429,3.9296796 13.2707755,3.95758012 C13.9463286,4.06010973 14.449072,4.06538731 14.8355643,3.97400669 C15.4068008,3.8389459 15.5290532,4.02278478 15.0032551,4.22617472 C14.8124209,4.29999358 14.8168104,4.30169037 15.1144375,4.2691598 C15.3902636,4.23901212 15.4583297,4.25766248 15.7341558,4.43896349 C16.1499546,4.71226899 17.1732105,5.7066271 17.6681467,6.31833617 C19.4646636,8.53871561 21.0242777,11.8494671 21.1859523,13.7859418 C21.2569156,14.6359053 21.0068661,15.6728614 20.6539235,15.9922697 C20.466719,16.1616883 20.5116665,16.2005428 20.8956725,16.2028432 C21.3194594,16.2053841 21.7659188,16.3988552 21.8837359,16.636646 C21.9847444,16.8405123 21.985519,17.4706028 21.8848576,17.5507714 C21.7786155,17.6353865 17.9827845,18.995592 15.8271111,19.7215158 L14.0609164,20.3162836 L13.100353,20.3289277 C12.5720432,20.3358822 12.0561277,20.3301672 11.9538741,20.316226 L11.9538741,20.316226 Z M13.0215974,17.528782 C12.9457141,17.5325065 12.6985432,17.469131 12.6456737,17.4723944 C12.5925273,17.4756727 12.8639075,17.5511141 12.9402593,17.5613333 C12.9862455,17.5674871 15.2326023,17.187852 17.2845615,16.7948768 C18.5151554,16.5592035 19.7164229,16.3404777 20.2828529,16.2172845 C20.4179757,16.1878962 20.4898865,16.1767785 20.5238874,16.1591165 C20.5489079,16.1461192 20.556945,16.1521032 20.5438113,16.1294016 L13.0215974,17.528782 Z M0.0694937239,18.6334441 C0.0857877296,17.7908392 0.117143307,16.3540328 0.139172744,15.440542 L0.179226315,13.7796486 L2.40860177,13.7842841 C3.6347582,13.7868311 4.6571233,13.8091645 4.68052411,13.8339092 C4.70392492,13.8586546 4.73252628,15.2709232 4.74408279,16.9722855 L4.76509452,20.0656701 L4.61018862,20.0812034 C4.5249903,20.0897462 3.4618144,20.1121974 2.24757546,20.131095 L0.0398682513,20.1654541 L0.0694937239,18.6334447 L0.0694937239,18.6334441 Z M5.00383189,17.0047234 C5.02681694,15.3968754 5.05646816,14.0636965 5.0697235,14.0421036 C5.08297891,14.0205101 5.27782838,14.0121948 5.50272242,14.0236242 L5.91162062,14.0444046 L5.91180654,16.0067228 C5.91193048,17.0859976 5.93006344,18.4042382 5.95212541,18.9361468 L5.99223792,19.9032525 L5.47712923,19.9156679 L4.96202049,19.9280828 L5.00381144,17.0047234 L5.00383189,17.0047234 Z M15.0603745,12.9988909 C15.0098694,12.6304144 15.0100875,11.8028432 15.0606844,11.8028432 C15.1317351,11.8028432 15.3455088,12.078093 15.4321522,12.2811344 C15.5964253,12.6660947 15.5283629,13.0015042 15.2488017,13.1846793 C15.0994125,13.2825632 15.0992259,13.2823792 15.0603696,12.9988909 L15.0603745,12.9988909 Z M13.5747468,9.64444242 C13.4377122,9.49302107 13.4453601,9.31189104 13.5961277,9.13805448 L13.7200713,8.9951462 L13.7200713,9.37645949 C13.7200713,9.58618208 13.7104496,9.75777279 13.6986904,9.75777279 C13.6869306,9.75777279 13.631156,9.70677431 13.5747468,9.64444242 Z M13.2776972,3.70731643 C13.2218562,3.69125358 13.0024208,3.39004284 12.7900625,3.03795918 C12.2700179,2.17573964 11.7348892,1.5510523 11.2411981,1.22987864 C10.547913,0.77885813 10.5045501,0.684958473 10.9023727,0.496179262 C11.4382784,0.241875313 12.1484756,0.230582558 12.9054727,0.464328158 C13.577507,0.671839161 13.8840091,0.626413746 14.3830912,0.245336439 C14.6067655,0.0745484563 14.7246043,0.0281953239 14.935109,0.0281953239 C15.5447947,0.0281953239 16.2783478,0.484720113 16.6128817,1.07235238 C16.8621597,1.5102278 17.0616154,1.70002186 17.4693671,1.88735025 C17.6738741,1.98130445 17.9207154,2.14273803 18.0179027,2.24609155 L18.1946073,2.43400706 L18.0488886,2.52790597 C17.9687435,2.57955038 17.7219023,2.67675803 17.500353,2.74392298 C17.2788037,2.81108786 16.8186629,2.95149137 16.4778178,3.05593064 C16.1369727,3.16036997 15.6907755,3.35091711 15.4862685,3.47936873 L15.1144375,3.71291726 L14.2468319,3.72471936 C13.7696488,3.73121054 13.3335381,3.72337891 13.2776972,3.70731643 L13.2776972,3.70731643 Z" id="path2574"></path>
                </g>
            </g>
        </g>
    </g>
</svg>