<?xml version="1.0" encoding="UTF-8"?>
<svg width="24px" height="24px" viewBox="0 0 24 24" version="1.1" xmlns="http://www.w3.org/2000/svg" xmlns:xlink="http://www.w3.org/1999/xlink">
    <!-- Generator: Sketch 63.1 (92452) - https://sketch.com -->
    <title>ic_settings_work@3x</title>
    <desc>Created with Sketch.</desc>
    <g id="assets" stroke="none" stroke-width="1" fill="none" fill-rule="evenodd">
        <g id="ic_settings_work" transform="translate(2.000000, 2.000000)" fill-rule="nonzero" stroke="#1D9E89" stroke-width="1.49659864">
            <g id="Shape">
                <path d="M19.9305502,8.90784309 C19.8989949,8.62734259 19.5719343,8.41655886 19.2891252,8.41655886 C18.3747661,8.41655886 17.5633884,7.87968773 17.2231116,7.04939734 C16.8754844,6.19898634 17.0996379,5.20721141 17.7810823,4.58213631 C17.9955836,4.38605325 18.0216445,4.05781272 17.8417426,3.82980397 C17.37376,3.23554087 16.8418502,2.69874399 16.2610855,2.23352002 C16.0336652,2.05102393 15.6999965,2.07641598 15.5027948,2.29477278 C14.9080716,2.95340696 13.8397972,3.19819525 13.0143125,2.85376914 C12.1552678,2.492415 11.6135573,1.62195765 11.6665701,0.687574696 C11.6840183,0.394081186 11.469517,0.138898491 11.1769072,0.104819685 C10.4316099,0.0186203515 9.67977872,0.015947504 8.93225394,0.0988800238 C8.64298531,0.130805703 8.428484,0.379974491 8.43821044,0.669755713 C8.47073089,1.59493219 7.92248664,2.45016916 7.07198045,2.79853029 C6.25637061,3.13167104 5.19559523,2.88896164 4.60205995,2.23619287 C4.40589781,2.02117713 4.07764919,1.99474564 3.84911509,2.17286123 C3.25112496,2.64202022 2.70726133,3.17926258 2.23497238,3.76862546 C2.0507641,3.99774789 2.07786447,4.3298492 2.29451895,4.52697171 C2.9889567,5.15583334 3.21318444,6.15622078 2.85241538,7.01643222 C2.50798078,7.83655094 1.65636087,8.36510654 0.681415702,8.36510654 C0.3650467,8.35493487 0.139705249,8.56727776 0.10510587,8.85490586 C0.0173452129,9.6044911 0.0163057466,10.3682573 0.10079951,11.1239307 C0.132131995,11.4056191 0.469141828,11.6145467 0.755069316,11.6145467 C1.62391467,11.5923472 2.4580864,12.1302578 2.80801532,12.9817825 C3.15683052,13.8321935 2.93260278,14.8233744 2.25011889,15.4489693 C2.03665705,15.6450523 2.00955668,15.9727731 2.1894586,16.2007819 C2.65306059,16.7912584 3.1850446,17.328575 3.76788822,17.7976598 C3.99649657,17.9818635 4.32912579,17.9558775 4.52729262,17.7375207 C5.12424329,17.0772531 6.19244344,16.8329103 7.0146613,17.1780046 C7.87585916,17.5382451 8.41756961,18.4086282 8.36455683,19.3435309 C8.34725714,19.6371729 8.5627979,19.892801 8.85421971,19.9263601 C9.23548111,19.9708333 9.61904419,19.9930328 10.0036467,19.9930328 C10.3687222,19.9930328 10.7338718,19.9729865 11.0989473,19.932374 C11.3882901,19.9004484 11.6026429,19.6512796 11.5929165,19.3609786 C11.5594308,18.4363219 12.1086403,17.5810849 12.9580328,17.2333177 C13.7791369,16.8979496 14.8354575,17.1434061 15.429067,17.7955067 C15.6263428,18.0100769 15.9522898,18.0359887 16.1820861,17.8584671 C16.7789625,17.3904218 17.3217124,16.8536249 17.7962288,16.2626286 C17.9803628,16.0340259 17.9543762,15.7014049 17.736608,15.5043566 C17.0421702,14.875495 16.8168288,13.874959 17.1775978,13.0153416 C17.5167609,12.206137 18.3367513,11.6628065 19.2187385,11.6628065 L19.342138,11.665999 C19.628214,11.6892379 19.8914217,11.4688765 19.9260953,11.1768679 C20.0140045,10.4266145 20.0150439,9.66351649 19.9305502,8.90784309 Z M10.0283172,13.0257836 C8.37771315,13.0257836 7.03508653,11.6831719 7.03508653,10.0325863 C7.03508653,8.38206744 8.37771315,7.03938902 10.0283172,7.03938902 C11.6788545,7.03938902 13.0214811,8.38206744 13.0214811,10.0325863 C13.0214811,11.6831719 11.6788545,13.0257836 10.0283172,13.0257836 Z"></path>
            </g>
        </g>
    </g>
</svg>