<?xml version="1.0" encoding="UTF-8"?>
<svg width="24px" height="24px" viewBox="0 0 24 24" version="1.1" xmlns="http://www.w3.org/2000/svg" xmlns:xlink="http://www.w3.org/1999/xlink">
    <!-- Generator: Sketch 63.1 (92452) - https://sketch.com -->
    <title>ic_share@3x</title>
    <desc>Created with Sketch.</desc>
    <g id="assets" stroke="none" stroke-width="1" fill="none" fill-rule="evenodd">
        <g id="Share" transform="translate(3.000000, 2.000000)" fill="#1D9E89" fill-rule="nonzero">
            <path d="M13.6493705,19.8053829 C12.4664133,19.5484057 11.5213863,18.4833105 11.3518084,17.2159105 C11.3191288,16.9716724 11.3664922,16.578539 11.4738448,16.2029714 C11.5129853,16.06604 11.5330905,16.0806819 10.5254903,15.51228 C10.3075855,15.3893562 9.6630141,15.0182514 9.09310933,14.6876019 C7.89064933,13.9899543 7.06132933,13.5119288 6.50263314,13.1944333 C6.28472838,13.0706025 5.79431771,12.7864907 5.412832,12.5630745 C5.03134571,12.3396579 4.66529429,12.1568629 4.599384,12.1568629 C4.5334739,12.1568629 4.40674095,12.2084749 4.31775657,12.2715558 C3.89569562,12.5707545 2.94360038,12.7221632 2.35124819,12.5842834 C0.897756381,12.2459589 -0.126593714,10.782472 0.0945344762,9.36012019 C0.196559048,8.703872 0.469131048,8.19528724 1.00138571,7.66804971 C1.60654667,7.0685941 2.06149943,6.88443733 2.93691886,6.88458305 C3.68464248,6.88470495 4.14013962,7.0363381 4.726888,7.48044629 L5.11937371,7.77751771 L5.43005105,7.61038762 C5.60092381,7.5184659 6.06433867,7.25581848 6.45986286,7.02672705 C6.85538648,6.79763505 7.18858324,6.61019619 7.20029962,6.61019619 C7.21201581,6.61019619 7.40954857,6.49601162 7.63926095,6.35645257 C7.86897276,6.21689371 8.86606171,5.63829714 9.8550141,5.07068229 C10.8439665,4.50306819 11.6766394,4.01635124 11.7053985,3.98908895 C11.7344406,3.96155924 11.729732,3.73030705 11.6948061,3.46894324 C11.6153827,2.874568 11.6877204,2.39606248 11.932649,1.89563371 C12.2208811,1.30672895 12.4926747,0.980302667 12.9429274,0.682279238 C13.5543486,0.277578286 13.8562103,0.186343238 14.5788229,0.187826644 C15.1011276,0.188930476 15.24504,0.212691619 15.5845371,0.3539 C16.3307543,0.664276952 16.7575181,1.07772343 17.166381,1.88638667 C17.6703467,2.88314648 17.4424171,4.17049733 16.6093562,5.03247543 C16.2006648,5.4553539 15.9155752,5.6384659 15.3889067,5.81636571 C15.0459619,5.93220648 14.8886952,5.95012819 14.4137086,5.92749486 C13.7409779,5.89543867 13.3745903,5.75650133 12.7838276,5.30942667 L12.3907366,5.01194552 L12.0828752,5.17368267 C11.9135522,5.26263848 11.5967284,5.43929848 11.3788236,5.56626114 C11.1609189,5.69322362 10.8454903,5.87400476 10.6778712,5.96799638 C10.5102522,6.061988 10.3456808,6.1589779 10.312157,6.18352952 C10.2786331,6.20808114 10.127776,6.29615371 9.97691886,6.37924648 C9.35988686,6.71910895 6.7543299,8.2271099 6.45573524,8.41717771 C6.27908419,8.52962381 6.12025943,8.62162476 6.10279105,8.62162476 C6.08532248,8.62162476 5.99334914,8.67905657 5.8984061,8.74925181 C5.73608686,8.86925905 5.72927124,8.89200095 5.78423314,9.13020419 C5.887256,9.57669733 5.81112895,10.3733596 5.62637619,10.782152 C5.5362861,10.9814895 5.47450057,11.1756587 5.48907486,11.2136394 C5.51259638,11.2749362 6.03939448,11.5901672 6.959776,12.0936949 C7.47708438,12.376707 9.687932,13.6505533 9.96046971,13.822636 C10.1022796,13.9121752 10.2307429,13.9854343 10.2459432,13.9854343 C10.2611432,13.9854343 10.405689,14.0653295 10.5671543,14.162981 C11.5003463,14.7273524 12.0134598,15.0216248 12.0643434,15.0216248 C12.0960667,15.0216248 12.2477608,14.9109448 12.4014411,14.7756705 C12.5551217,14.6403943 12.6726244,14.544341 13.0781013,14.3020743 C13.7369042,13.9279657 14.48144,13.881179 15.4960133,14.3343352 C16.4820095,14.8413619 17.1083467,15.8396438 17.1083467,16.9647486 C17.1083467,17.817259 16.8007543,18.5129619 16.1689486,19.0894495 C15.7505371,19.4712267 15.3165029,19.7006362 14.8092457,19.8081238 C14.3116133,19.9135733 14.1455962,19.913181 13.6493705,19.805381 L13.6493705,19.8053829 Z" id="path5462"></path>
        </g>
    </g>
</svg>