<?xml version="1.0" encoding="UTF-8"?>
<svg width="32px" height="29px" viewBox="0 0 32 29" version="1.1" xmlns="http://www.w3.org/2000/svg" xmlns:xlink="http://www.w3.org/1999/xlink">
    <!-- Generator: Sketch 63.1 (92452) - https://sketch.com -->
    <title>ic_detail_3@3x</title>
    <desc>Created with Sketch.</desc>
    <g id="assets" stroke="none" stroke-width="1" fill="none" fill-rule="evenodd" opacity="0.699999988">
        <g id="Group-9" fill="#1D9E89" fill-rule="nonzero">
            <g id="Shares-transparrent">
                <path d="M25.623449,28.8671714 C23.9095131,28.5961082 22.8062001,28.0593646 22.4182845,27.3079119 C22.3095192,27.0972172 22.258947,26.6522082 22.3351119,26.5760427 C22.3535744,26.5575802 22.5112887,26.6833164 22.6855881,26.8554569 C23.4014805,27.5624808 24.9704497,28.0521502 26.5199586,28.0521502 C27.0399677,28.0521502 27.2769292,28.0238299 28.1529728,27.8569826 C28.9643825,27.7024451 29.8199662,27.3045431 30.3239613,26.847332 L30.6215442,26.5773733 L30.6402267,26.8259102 C30.7003258,27.6254202 29.6684209,28.3899209 28.031068,28.7589413 C27.637376,28.8476702 25.973173,28.9224814 25.623449,28.8671714 L25.623449,28.8671714 Z M14.8599637,28.6296844 C13.5473432,28.4080975 12.5607333,27.9272003 12.1278098,27.2979682 C11.9670339,27.0642883 11.9396395,26.9692788 11.9396395,26.6453565 L11.9396395,26.2662406 L12.1190302,26.5138822 C12.506276,27.0484596 13.3373135,27.4515493 14.6824966,27.7572766 C15.1135653,27.8552478 17.1139956,27.8610615 17.4863061,27.7654254 C17.6371633,27.7266743 17.8977347,27.6630772 18.0653538,27.6240981 C18.3564763,27.5563989 18.4283026,27.5322545 18.8120204,27.3731054 C19.4551308,27.1063729 19.9755642,26.6555337 20.1727348,26.3594362 C20.1834575,26.3282962 20.2655305,26.3336509 20.2859429,26.348082 C20.3481076,26.3931465 20.2897646,26.8617704 20.1413059,27.1806373 C20.0308504,27.4178767 19.9011614,27.5658094 19.6261565,27.7682566 C19.2687982,28.0313289 18.5279116,28.3806629 18.0958299,28.4898176 C17.1876571,28.7192454 15.7568512,28.7810901 14.8599637,28.6296844 L14.8599637,28.6296844 Z M4.7777347,28.6216966 C3.33217036,28.4500547 2.15389257,27.8807595 1.70662888,27.1378645 C1.5680128,26.9076273 1.52695345,26.406436 1.64670659,26.406436 C1.68464152,26.406436 1.84097402,26.5317309 1.99411261,26.6848689 C2.42502156,27.1157784 3.3063613,27.5052422 4.29011566,27.6994731 C4.80242408,27.8006223 6.3745853,27.8289182 6.91106804,27.7466453 C7.59264427,27.6421211 8.0110464,27.5322898 8.46535375,27.3386417 C9.07072427,27.080604 9.25643276,26.9635133 9.5777347,26.6372803 L9.9282109,26.2814251 L9.9282109,26.6579657 C9.9282109,26.9866679 9.90384823,27.0662394 9.73644678,27.2842807 C9.26048427,27.9042274 8.3370813,28.3646976 7.1621315,28.5680067 C6.67079436,28.6530255 5.30129676,28.6838632 4.7777347,28.6216966 Z M24.8902546,26.6798019 C24.3042426,26.560423 23.9562331,26.4484102 23.551068,26.2487613 C22.7336235,25.8459575 22.3015442,25.3378121 22.3015442,24.7792646 C22.3015442,24.601447 22.3137054,24.4559598 22.3285699,24.4559598 C22.3434338,24.4559598 22.4943543,24.602677 22.6639488,24.7819983 C23.110222,25.2538667 23.8667063,25.6100565 24.9087055,25.8389406 C25.514805,25.9720753 27.3848058,25.9888561 27.9701157,25.8664119 C29.0899706,25.6321445 30.1798309,25.0934388 30.4462001,24.6425118 C30.5982159,24.3851697 30.6520204,24.4086162 30.6520204,24.7322033 C30.6520204,25.0987179 30.5293952,25.3740958 30.2184631,25.7058365 C29.9817679,25.9583714 29.2713521,26.3767016 28.8844014,26.4914018 C27.9666633,26.7634383 27.478773,26.8305969 26.4107508,26.8319037 C25.7816606,26.8162737 25.3325903,26.7705149 24.8902546,26.6798019 L24.8902546,26.6798019 Z M4.93011566,26.6463061 C3.806976,26.4766452 3.3206845,26.340491 2.73073676,26.0305146 C1.69121829,25.4843209 1.3140675,24.712729 1.75034514,24.0247899 C2.26810612,23.2370999 3.39917251,22.890677 4.15291977,22.705419 C4.49214171,22.6238226 4.8640829,22.5988553 5.7529728,22.5979794 C6.8579133,22.5969627 7.0816707,22.620917 7.82535375,22.8198686 C8.90064945,23.107534 9.83981227,23.7997678 9.95015131,24.3860047 C10.0281064,24.8001835 9.9342464,25.0545713 9.55316785,25.4619453 C9.0729216,25.9753307 8.31754971,26.3517257 7.42916328,26.5203188 C6.40333836,26.714994 5.63968366,26.7534927 4.93011566,26.6463061 Z M15.2005918,26.6434536 C14.1817807,26.4957385 13.7242709,26.3608887 13.0103357,25.9978795 C12.6704158,25.8250435 12.1533477,25.3612928 12.025085,25.1142235 C11.9398485,24.9500349 11.904309,24.3950074 11.979033,24.3950074 C12.0006991,24.3950074 12.1451002,24.5134964 12.2999241,24.6583162 C12.8699099,25.1914709 13.4872198,25.456142 14.743449,25.7059767 C15.2767982,25.8120472 16.9165598,25.8297978 17.3526485,25.734222 C17.5099697,25.6997425 17.7758299,25.6428361 17.943449,25.6077641 C18.2433566,25.5450112 18.7127771,25.3827237 19.1320204,25.1968512 C19.5590223,25.0075392 20.0648046,24.5815912 20.1565275,24.334055 C20.2098115,24.1902574 20.2154002,24.1958784 20.2557513,24.4338572 C20.3839537,25.1899496 19.7021361,25.8991104 18.431068,26.3317163 C17.4616113,26.6616692 16.179531,26.7853891 15.2005918,26.6434548 L15.2005918,26.6434536 Z M25.8367823,24.7792177 C25.2922569,24.7206467 24.492644,24.562059 24.1605918,24.4467785 C23.3370539,24.1608655 22.6500736,23.6811337 22.4209006,23.2319171 C22.2970234,22.9890981 22.257074,22.5054836 22.3608923,22.5054836 C22.3935342,22.5054836 22.5394731,22.6247156 22.6852011,22.7704436 C23.1856616,23.2709041 23.9375787,23.5970651 25.1557181,23.842087 C25.6329387,23.9380773 27.3647445,23.9240795 27.9091633,23.8198315 C28.9775092,23.61526 29.8704792,23.2175183 30.3468386,22.734055 C30.470706,22.6083407 30.5900446,22.5054836 30.6120363,22.5054836 C30.6941166,22.5054836 30.6482036,23.013223 30.5467282,23.2277004 C30.2673566,23.8181778 29.3191144,24.3818173 28.183449,24.632445 C27.4947517,24.7844322 26.4770322,24.8480853 25.8367823,24.7792177 L25.8367823,24.7792177 Z M23.2920496,23.5696106 C23.2920496,23.5207217 23.2708766,23.4807217 23.2449982,23.4807217 C23.2191198,23.4807217 23.1682722,23.5207217 23.1320036,23.5696106 C23.0957351,23.6184995 23.1169081,23.6584995 23.179055,23.6584995 C23.2412019,23.6584995 23.2920496,23.6184995 23.2920496,23.5696106 Z M15.0786871,24.5766095 C14.0505917,24.443812 13.1063857,24.0896719 12.5043133,23.6110488 C12.1342616,23.3168719 11.9396395,22.9786782 11.9396395,22.6298167 C11.9396395,22.3312768 12.0421346,22.3080832 12.2507995,22.5594051 C12.5954243,22.9744811 13.4385061,23.4035633 14.2253538,23.5643453 C15.6890124,23.8634246 16.7334644,23.8572325 18.0958299,23.5413986 C18.9597434,23.3411194 20.0170002,22.7025646 20.1435142,22.3046522 C20.1851099,22.1738264 20.1875182,22.1734936 20.2338981,22.2921502 C20.3775957,22.6597809 20.184637,23.2024192 19.7849765,23.5546069 C19.5133775,23.7939438 18.8584704,24.1500745 18.4005918,24.3074182 C17.6517961,24.5647317 16.0141336,24.6974403 15.0786871,24.5766095 L15.0786871,24.5766095 Z M25.5929728,22.7111893 C24.2561445,22.5859072 22.8501041,21.937486 22.4556142,21.2643401 C22.3099849,21.0158427 22.2451718,20.5707453 22.3407043,20.4752122 C22.3622424,20.4536741 22.5347334,20.5793883 22.7240168,20.7545771 C23.3275727,21.313191 23.9623778,21.5876206 25.094158,21.7792018 C26.958781,22.094834 28.9365681,21.7630238 30.0463305,20.9483837 C30.2111037,20.8274286 30.393277,20.648295 30.4511592,20.550308 C30.5997233,20.2988081 30.652224,20.3281122 30.6507148,20.6616741 C30.6492312,20.9751186 30.4988733,21.3596873 30.2946237,21.5723538 C29.8799854,22.0040783 28.950105,22.4370853 28.0366141,22.6238171 C27.6853327,22.6956245 26.0505826,22.7540748 25.5929728,22.7111893 L25.5929728,22.7111893 Z M15.6577347,22.6113371 C13.9131733,22.4955368 12.5918007,21.9562338 12.0847933,21.1530825 C11.914713,20.8836584 11.8856838,20.34853 12.0263881,20.0764379 C12.437735,19.3334942 12.9760433,19.1786459 13.5866258,18.9520165 C14.5255125,18.6076087 15.2580766,18.4826264 16.1440866,18.4826264 C16.9102263,18.4826264 17.9538243,18.6677413 18.5529728,18.9099173 C18.8572709,19.0944372 19.3936792,19.3375634 19.4668258,19.406915 C19.5771947,19.5187468 19.9542869,19.8246187 19.9932349,19.8581425 C20.155356,19.9976862 20.2867535,20.4749653 20.2878067,20.6159598 C20.2896744,20.8694942 20.0169923,21.3717602 19.7563508,21.5948599 C18.9260727,22.305547 17.2633381,22.717913 15.6577347,22.6113371 L15.6577347,22.6113371 Z M25.0748776,20.5893992 C24.443459,20.4594018 23.9942522,20.3105963 23.4845495,20.0625816 C22.6816128,19.6718842 22.3004428,19.1974626 22.3027872,18.5917214 L22.3040536,18.2692931 L22.5618481,18.5530307 C23.2505576,19.3110498 24.4354548,19.7611179 25.9891657,19.8548535 C27.8837821,19.9691557 29.7796224,19.4012599 30.4107014,18.5303899 C30.5009841,18.4058033 30.5922152,18.3212318 30.6134376,18.3424536 C30.6842002,18.4132169 30.6531663,18.9104719 30.5647854,19.1219968 C30.3137664,19.7227709 29.2765708,20.3224649 28.0440948,20.5794316 C27.5230915,20.6880585 25.5856762,20.6945627 25.07488,20.5893992 L25.0748776,20.5893992 Z M25.7148776,18.6660413 C24.3635486,18.5215256 23.3860285,18.1664043 22.7993716,17.6068742 C22.2713338,17.1032527 22.1611672,16.593525 22.4741644,16.1021787 C23.0734281,15.1614494 24.6066926,14.585572 26.5194965,14.5827871 C26.9452751,14.5821818 27.4389894,14.609294 27.6166394,14.6430513 C28.2204142,14.7577819 28.5490005,14.8410612 28.6200698,14.8973672 C28.659069,14.9282651 28.766781,14.9672905 28.8594304,14.9840914 C29.4251173,15.08667 30.2437528,15.6461446 30.489895,16.0983887 C31.0625365,17.1505201 30.0345789,18.1575875 27.9396395,18.5968171 C27.5155822,18.6857259 26.2632972,18.7246915 25.7148776,18.6660413 L25.7148776,18.6660413 Z M0.37786944,18.0276986 C0.11203904,17.9120811 -0.0289267529,17.6219746 0.0105484495,17.2717544 C0.0444903924,16.9706203 0.0859233829,16.9243849 1.30147718,15.8311979 C1.59968792,15.5630074 1.90114194,15.2887217 1.97137554,15.2216741 C2.04160914,15.1546264 2.31777219,14.9091511 2.58507032,14.6761734 C2.85236907,14.4431957 3.24935375,14.0861007 3.46725851,13.8826289 C3.8266045,13.5470836 4.58114255,12.8690109 4.90633143,12.5893931 C4.97705996,12.528576 5.28320549,12.2515298 5.58665448,11.9737344 C6.48456899,11.1517318 6.29205821,11.2088771 7.24630613,11.4810825 C8.14369768,11.7370697 8.65553432,11.8859898 8.89202042,11.9599067 C8.97582994,11.9861029 9.16782994,12.0413269 9.31868709,12.0826264 C9.46954423,12.1239259 9.66154423,12.1786496 9.74535375,12.2042344 C10.4427569,12.4171301 10.8981022,12.5500721 11.8482109,12.8181809 C12.4516395,12.9884605 13.0276395,13.1516459 13.1282109,13.1808146 C13.2287823,13.2099828 13.407068,13.2603691 13.5244014,13.2927842 C13.6417347,13.3251986 13.9708776,13.4221696 14.2558299,13.5082752 C14.5407823,13.5943808 14.8080933,13.6654062 14.8498536,13.6661096 C14.8916145,13.6668105 15.1846558,13.4548169 15.5010566,13.1950074 C15.8174568,12.9351979 16.3969463,12.462055 16.788811,12.1435788 C17.180675,11.8251026 17.5322051,11.535961 17.5699889,11.5010414 C17.6077733,11.4661224 17.9129728,11.2194554 18.2482109,10.952893 C18.583449,10.6863305 18.871449,10.4536491 18.8882109,10.4358235 C18.9309422,10.3903811 20.0742662,9.45911223 20.8386871,8.84710705 C21.4353707,8.3693952 21.7347456,8.12030781 21.89861,7.96522545 C21.9358427,7.92998766 22.3091633,7.63024335 22.7282109,7.29912686 C23.1472585,6.96801036 23.5038299,6.68055345 23.5205918,6.66033493 C23.5464655,6.62912488 23.7677324,6.44701013 24.6458825,5.73415918 C24.7142107,5.67869275 25.0883535,5.37697847 25.4773114,5.06368299 C26.3718705,4.34313807 27.8081073,3.16817128 27.8482109,3.12408076 C27.8649728,3.10565242 28.0663546,2.94009155 28.2957263,2.75616768 L28.712765,2.42176061 L28.4481073,2.37597519 C28.3025451,2.3507932 27.7171633,2.30305158 27.1472585,2.26988276 C25.9551659,2.20050219 24.7354526,2.10728832 24.2557251,2.04890392 L23.9241917,2.00855522 L24.1033442,1.8568715 C24.2851669,1.70292699 25.2412404,0.830195992 25.8030458,0.30533607 C26.1463582,-0.0154002347 26.1168482,-0.010058368 27.0558299,0.0785645653 C27.4078299,0.11178727 28.1209728,0.165066965 28.6405918,0.196963956 C30.8359046,0.331724184 31.5474054,0.38266148 31.7427529,0.419053099 L31.9496765,0.457600603 L31.91099,1.25678019 C31.8897128,1.6963289 31.830915,3.00074837 31.7803276,4.15549019 L31.6883517,6.2550211 L31.4901858,6.44120442 C31.381195,6.54360564 31.0863061,6.80192305 30.8348776,7.01524419 C30.583449,7.22856472 30.3503061,7.4344003 30.3167823,7.47265707 C30.2832585,7.51091383 30.0763471,7.69818758 29.8569795,7.88882103 L29.4581297,8.23542735 L29.4753908,7.64474088 C29.4848847,7.31986347 29.5236858,6.38205501 29.5616152,5.56072155 C29.5995447,4.73938822 29.6204026,3.98676328 29.6079659,3.88822162 C29.5880966,3.73078735 29.5742641,3.71969737 29.4939252,3.79679305 C29.4436395,3.84504899 29.3020136,3.95954462 29.1792012,4.05122786 C29.0563889,4.14291109 28.919246,4.25313304 28.8744393,4.29616549 C28.8296326,4.33919793 28.5735442,4.55218438 28.3053538,4.76946865 C28.0371633,4.98675298 27.8040204,5.17952482 27.7872585,5.19785051 C27.7704966,5.21617615 27.5785088,5.3670333 27.3606193,5.53308861 C27.1427298,5.69914386 26.9215787,5.87615013 26.8691724,5.92643584 C26.7522127,6.0386627 26.5237254,6.22643078 25.1663061,7.32582888 C24.0373425,8.24019627 23.6013897,8.5989827 23.4945554,8.70167101 C23.4585899,8.73624137 23.2508776,8.90037333 23.0329728,9.06641006 C22.815068,9.23244617 22.5682109,9.42683855 22.4844014,9.4983936 C22.028291,9.88780922 21.1381742,10.6192817 20.8996395,10.8007046 C20.7487823,10.9154426 20.3929222,11.2028136 20.108839,11.4393064 C19.8247558,11.6757992 19.5393128,11.910436 19.474521,11.9607217 C19.4097292,12.0110074 19.2581608,12.1359848 19.1377024,12.2384494 C19.017244,12.340914 18.8330362,12.4917711 18.7283523,12.5736875 C18.3766083,12.8489301 16.9703845,13.9917086 16.7505536,14.1809603 C16.4572995,14.4334214 16.2749672,14.5814882 16.0222464,14.7723971 C15.9055744,14.8605324 15.7141157,15.0185393 15.5967823,15.1235224 C15.3343756,15.3583092 15.1477784,15.4122545 14.9018661,15.3244227 C14.7979752,15.2873161 14.5621157,15.2163986 14.3777347,15.1668279 C14.1933538,15.1172578 13.8504966,15.0185978 13.6158299,14.947584 C13.2081585,14.8242164 12.5797937,14.6423899 12.1224966,14.5154664 C12.0051633,14.4829001 11.8680204,14.4441222 11.8177347,14.4292931 C11.767449,14.414464 11.623449,14.3741117 11.4977347,14.3396218 C11.3720204,14.3051313 11.1731633,14.2494836 11.0558299,14.2159598 C10.9384966,14.182436 10.7396395,14.1260325 10.6139252,14.0906185 C10.4882109,14.055204 10.2962109,14.0003468 10.1872585,13.9687138 C9.68614339,13.823218 9.56632747,13.7886775 9.16630613,13.6743948 C8.93163947,13.6073521 8.54763947,13.4938014 8.3129728,13.4220599 C8.07830613,13.3503183 7.79030613,13.2649076 7.6729728,13.2322584 C7.55563947,13.1996087 7.36363947,13.1451057 7.24630613,13.1111394 C6.78549638,12.9777426 6.77255131,12.9786746 6.59240168,13.1582135 C6.49641143,13.2538789 6.06492709,13.6475788 5.63354819,14.0331026 C5.2021693,14.4186264 4.68228145,14.887257 4.47824091,15.0745039 C4.27420038,15.2617509 3.98382994,15.5222827 3.8329728,15.6534626 C3.68211566,15.784643 3.40782994,16.0324248 3.22344899,16.2040881 C3.03906804,16.3757519 2.77849661,16.6086552 2.64440137,16.7216506 C2.42134491,16.9096094 2.15522072,17.1523304 1.48630613,17.7778993 C1.10817585,18.1315261 0.784373638,18.2044995 0.37786944,18.0276986 L0.37786944,18.0276986 Z" id="path4312"></path>
            </g>
        </g>
    </g>
</svg>